<?xml version="1.0" encoding="utf-8"?>
<!-- Generator: Adobe Illustrator 26.0.0, SVG Export Plug-In . SVG Version: 6.00 Build 0)  -->
<svg version="1.1" id="RESPONSIVE" xmlns="http://www.w3.org/2000/svg" xmlns:xlink="http://www.w3.org/1999/xlink" x="0px" y="0px"
	 viewBox="0 0 1800 1800" style="enable-background:new 0 0 1800 1800;" xml:space="preserve">
<style type="text/css">
	.st0{fill:#333333;}
	.st1{fill:#0050FF;}
</style>
<path class="st0" d="M1748.7,978h-39.6h-49.8h-211.2c-23.4,0-42.3,19-42.3,42.4v40.5v49.8v193.7v49.8v212.9
	c0,23.4,19,42.4,42.3,42.4h300.6c23.4,0,42.4-19,42.4-42.4v-546.7C1791,997,1772,978,1748.7,978z M1741.2,1559.6h-285.7v-205.4
	v-49.8v-193.7v-49.8v-33.1h203.7h49.8h32.1V1559.6z"/>
<path class="st0" d="M1598.1,1479.1c-13.3,0-24,10.8-24,24c0,13.3,10.7,24,24,24c13.3,0,24-10.7,24-24
	C1622.1,1489.8,1611.4,1479.1,1598.1,1479.1z"/>
<path class="st0" d="M1639.1,1060.9c-1.8-1-3.8-1.6-5.9-1.6h-69.5c-2.2,0-4.2,0.6-5.9,1.6c-3.9,2.1-6.5,6.2-6.5,10.9
	c0,6.9,5.6,12.4,12.4,12.4h69.5c6.9,0,12.4-5.6,12.4-12.4C1645.6,1067.1,1642.9,1063,1639.1,1060.9z"/>
<path class="st0" d="M58.8,261.8c0-11.8,8.1-21.5,18-21.5h1540.7c9.9,0,18,9.6,18,21.5v674.7h8h41.8V261.8
	c0-39.3-30.4-71.3-67.8-71.3H76.8c-37.4,0-67.8,32-67.8,71.3v1021.1c0,39.3,30.4,71.3,67.8,71.3h614.1v205.3H453.9
	c-13.8,0-24.9,11.1-24.9,24.9s11.1,24.9,24.9,24.9h261.8h262.8h261.8c13.8,0,24.9-11.1,24.9-24.9s-11.1-24.9-24.9-24.9h-236.9
	v-205.3h353.2v-48.4v-1.4H76.8c-9.9,0-18-9.6-18-21.5v-172.2h1297.9v-24.1v-25.7H58.8V261.8z M953.7,1559.5h-213v-205.3h213
	L953.7,1559.5L953.7,1559.5z"/>
<path class="st0" d="M808.3,1205.6c0,21.5,17.4,38.9,38.9,38.9c21.5,0,38.9-17.4,38.9-38.9c0-21.5-17.4-38.9-38.9-38.9
	C825.7,1166.7,808.3,1184.1,808.3,1205.6z"/>
<path class="st1" d="M273.2,457.5h625.6c13.8,0,24.9-11.1,24.9-24.9s-11.1-24.9-24.9-24.9H273.2c-13.8,0-24.9,11.1-24.9,24.9
	S259.4,457.5,273.2,457.5z"/>
<path class="st1" d="M1421.1,556.4H273.2c-13.8,0-24.9,11.1-24.9,24.9c0,13.8,11.1,24.9,24.9,24.9h1147.9
	c13.8,0,24.9-11.1,24.9-24.9C1446,567.6,1434.9,556.4,1421.1,556.4z"/>
<path class="st1" d="M1421.1,705.1H273.2c-13.8,0-24.9,11.1-24.9,24.9s11.1,24.9,24.9,24.9h1147.9c13.8,0,24.9-11.1,24.9-24.9
	S1434.9,705.1,1421.1,705.1z"/>
<path class="st1" d="M1421.1,853.8H273.2c-13.8,0-24.9,11.1-24.9,24.9s11.1,24.9,24.9,24.9h1147.9c13.8,0,24.9-11.1,24.9-24.9
	S1434.9,853.8,1421.1,853.8z"/>
</svg>
