<?xml version="1.0" encoding="utf-8"?>
<!-- Generator: Adobe Illustrator 26.0.0, SVG Export Plug-In . SVG Version: 6.00 Build 0)  -->
<svg version="1.1" id="Layer_1" xmlns="http://www.w3.org/2000/svg" xmlns:xlink="http://www.w3.org/1999/xlink" x="0px" y="0px"
	 viewBox="0 0 44.2 32.8" style="enable-background:new 0 0 44.2 32.8;" xml:space="preserve">
<style type="text/css">
	.st0{fill:#0050FF;}
	.st1{fill:#303030;}
	.st2{fill:none;stroke:#FFFFFF;stroke-linecap:round;stroke-linejoin:round;}
</style>
<g>
	<g>
		<path class="st0" d="M39.4,32.8c-0.1,0-0.2,0-0.2-0.1l-6.6-4H20.4c-2,0-3.6-1.7-3.6-3.9v-1h0.9v1c0,1.6,1.2,3,2.7,3h12.3
			c0.1,0,0.2,0,0.2,0.1l6,3.6v-3.2c0-0.2,0.2-0.4,0.4-0.4h1.2c1.5,0,2.7-1.3,2.7-3v-8.7c0-1.6-1.2-3-2.7-3h-0.9v-0.9h0.9
			c2,0,3.6,1.7,3.6,3.9v8.7c0,2.1-1.6,3.9-3.6,3.9h-0.8v3.6c0,0.2-0.1,0.3-0.2,0.4C39.5,32.8,39.4,32.8,39.4,32.8z"/>
	</g>
	<g>
		<path class="st1" d="M7,29.7c-0.1,0-0.2,0-0.2-0.1c-0.1-0.1-0.2-0.2-0.2-0.4v-5.5H5.2c-2.8,0-5.2-2.5-5.2-5.5V5.5
			C0,2.5,2.3,0,5.2,0H35c2.8,0,5.2,2.5,5.2,5.5v12.8c0,3-2.3,5.5-5.2,5.5H17l-9.8,5.9C7.1,29.7,7,29.7,7,29.7z M5.2,0.9
			C2.8,0.9,0.9,3,0.9,5.5v12.8c0,2.5,1.9,4.6,4.3,4.6H7c0.2,0,0.4,0.2,0.4,0.4v5.1l9.2-5.5c0.1,0,0.1-0.1,0.2-0.1H35
			c2.4,0,4.3-2.1,4.3-4.6V5.5c0-2.5-1.9-4.6-4.3-4.6H5.2z"/>
	</g>
	<g>
		<path class="st0" d="M4.1,7.2C3.9,7.2,3.7,7,3.7,6.7c0-2,1.1-3.1,2.9-3.1C6.8,3.6,7,3.8,7,4.1S6.8,4.5,6.5,4.5c-1.3,0-2,0.7-2,2.2
			C4.5,7,4.4,7.2,4.1,7.2z"/>
	</g>
	<g>
	</g>
	<g>
		<path class="st2" d="M21.7,32.5"/>
	</g>
</g>
</svg>
