<?xml version="1.0" encoding="utf-8"?>
<!-- Generator: Adobe Illustrator 26.0.0, SVG Export Plug-In . SVG Version: 6.00 Build 0)  -->
<svg version="1.1" id="Layer_1" xmlns="http://www.w3.org/2000/svg" xmlns:xlink="http://www.w3.org/1999/xlink" x="0px" y="0px"
	 viewBox="0 0 49.5 32.9" style="enable-background:new 0 0 49.5 32.9;" xml:space="preserve">
<style type="text/css">
	.st0{fill:none;stroke:#0050FF;stroke-linejoin:round;}
	.st1{fill:none;stroke:#303030;stroke-linejoin:round;}
</style>
<path class="st0" d="M43.3,19.4c0.4-0.7,0.6-3.8,0.6-4.6c0-2.6-2.1-4.7-4.7-4.7c-2.6,0-4.7,2.1-4.7,4.7c0,0.9,0.2,4,0.7,4.7
	c0.8,1.4,2.3,2.6,4.1,2.6C40.9,22.1,42.5,20.9,43.3,19.4z"/>
<path class="st0" d="M29.3,32.4c1.4,0,8,0,9.8,0c0,0,0.1,0,0.1,0c1.8,0,8.4,0,9.8,0c0-4.3-3.4-10.6-6.5-9c-2,1-2.9,1.2-3.3,1.3
	c-0.4,0-1.2-0.3-3-1.1"/>
<path class="st0" d="M6.2,19.4c-0.4-0.7-0.6-3.8-0.6-4.6c0-2.6,2.1-4.7,4.7-4.7c2.6,0,4.7,2.1,4.7,4.7c0,0.9-0.2,4-0.7,4.7
	c-0.8,1.4-2.3,2.6-4.1,2.6C8.5,22.1,7,20.9,6.2,19.4z"/>
<path class="st0" d="M20.2,32.4c-1.4,0-8,0-9.8,0c0,0-0.1,0-0.1,0c-1.8,0-8.4,0-9.8,0c0-4.3,3.4-10.6,6.5-9c2,1,2.9,1.2,3.3,1.3
	c0.4,0,1.2-0.3,3-1.1"/>
<path class="st1" d="M30.6,13.9c0.6-1,0.9-5.4,0.9-6.6c0-3.7-3-6.8-6.8-6.8c-3.7,0-6.8,3-6.8,6.8c0,1.3,0.3,5.7,0.9,6.7
	c1.2,2,3.3,3.8,5.8,3.8C27.3,17.7,29.5,15.9,30.6,13.9z"/>
<path class="st1" d="M29.4,19.5c-2.8,1.4-4.1,1.7-4.7,1.8c-0.6-0.1-1.9-0.4-4.7-1.8c-4.5-2.2-9.3,6.7-9.3,12.9c1.9,0,11.5,0,14,0
	c0.1,0,0.1,0,0.2,0c2.5,0,12,0,14,0C38.8,26.3,33.9,17.3,29.4,19.5z"/>
</svg>
