<?xml version="1.0" encoding="utf-8"?>
<!-- Generator: Adobe Illustrator 26.0.0, SVG Export Plug-In . SVG Version: 6.00 Build 0)  -->
<svg version="1.1" id="RESPONSIVE" xmlns="http://www.w3.org/2000/svg" xmlns:xlink="http://www.w3.org/1999/xlink" x="0px" y="0px"
	 viewBox="0 0 1785.2 1785.2" style="enable-background:new 0 0 1785.2 1785.2;" xml:space="preserve">
<style type="text/css">
	.st0{fill:#333333;}
	.st1{fill:#0050FF;}
</style>
<path class="st0" d="M1620.5,376.6c-12.1-17.1-24.9-33.7-38.1-49.8C1418.6,127.4,1170.2,0,892.6,0C615,0,366.6,127.4,202.8,326.8
	c-13.3,16.1-26,32.8-38.1,49.8C61,522.4,0,700.5,0,892.6c0,193.2,61.7,372.2,166.4,518.5c12.2,17,24.9,33.6,38.3,49.7
	c163.9,198,411.4,324.4,687.9,324.4c276.5,0,524-126.4,687.8-324.4c13.3-16.1,26.1-32.7,38.3-49.7
	c104.7-146.2,166.4-325.3,166.4-518.5C1785.2,700.5,1724.2,522.4,1620.5,376.6z M1721.9,863.2h-324.6c-0.3-16.9-0.9-33.8-1.7-50.5
	c0-0.2,0-0.4,0-0.6c46.8-17.6,80.2-62.8,80.2-115.6c0-42.6-21.7-80.3-54.7-102.4c-0.4-0.3-0.8-0.6-1.2-0.8c-2.1-1.4-4.3-2.7-6.5-4
	c-0.4-0.2-0.7-0.4-1.1-0.6c-0.9-0.5-1.7-1-2.6-1.4c-0.4-0.2-0.8-0.4-1.2-0.6c-1.4-0.7-2.7-1.4-4.1-2c-0.9-0.4-1.8-0.8-2.7-1.2
	c-1-0.5-2.1-0.9-3.2-1.3c-0.5-0.2-1.1-0.4-1.6-0.6c-0.5-0.2-1.1-0.4-1.6-0.6c-0.4-0.1-0.8-0.3-1.2-0.4c-0.6-0.2-1.3-0.5-1.9-0.7
	c-0.6-0.2-1.2-0.4-1.8-0.6c-1-0.3-1.9-0.6-2.9-0.9c-1.3-0.4-2.6-0.8-3.9-1.1c-0.5-0.1-1.1-0.3-1.6-0.4c-0.6-0.2-1.2-0.3-1.9-0.5
	c-1-0.2-2-0.5-3-0.7c-0.6-0.1-1.1-0.2-1.7-0.3c-0.9-0.2-1.8-0.3-2.7-0.5c-0.1,0-0.1,0-0.2,0c-0.8-0.1-1.7-0.3-2.5-0.4
	c-0.4-0.1-0.9-0.1-1.3-0.2c-0.7-0.1-1.3-0.2-2-0.2c-0.4-0.1-0.8-0.1-1.3-0.1c-0.2,0-0.4,0-0.6-0.1c-0.1-0.5-0.2-1-0.3-1.5
	c-4-18.8-8.4-37.2-13.2-55.5c59.3-20,114.8-43.9,165.3-71.7c18.6-10.2,36.2-20.8,52.9-31.8C1660.5,541.2,1716.1,696,1721.9,863.2z
	 M1391.1,744c-10.6,8.6-24.1,13.8-38.8,13.8c-8.6,0-16.7-1.8-24.1-4.9c-21.9-9.4-37.3-31.2-37.3-56.5c0-19.8,9.4-37.3,23.9-48.6
	c10.4-8,23.4-12.9,37.5-12.9c9.1,0,17.7,2.1,25.5,5.6c21.1,9.7,35.9,31.1,35.9,55.8C1413.8,715.6,1404.9,732.7,1391.1,744z
	 M1531.2,363.3c-14.2,9.1-29.1,18-44.8,26.7c-46.5,25.6-97.7,47.8-152.4,66.4c-21.3-67.8-47.8-131-79.1-187.8
	c-39.4-71.7-84.6-130-133.8-173.7C1283.7,141.4,1426,236.5,1531.2,363.3z M923.9,64.8c103,13.8,200,95.7,276.1,233.9
	c29.3,53.2,54.1,112.4,74.2,176.1c-107.5,30.1-226.4,47.1-350.2,49.6V64.8z M923.9,587.2c129.5-2.5,254.3-20.4,367.5-52.1
	c4,15.4,7.7,31,11.1,46.8c0.1,0.5,0.2,1,0.3,1.4c0,0,0,0,0,0c-3.4,1.5-6.7,3.1-9.9,4.9c-0.6,0.4-1.3,0.7-1.9,1.1
	c-0.6,0.4-1.3,0.7-1.9,1.1c-0.6,0.3-1.2,0.7-1.8,1.1c-0.4,0.3-0.8,0.5-1.2,0.8c-0.6,0.3-1.1,0.7-1.7,1.1c-0.7,0.4-1.4,0.9-2,1.4
	c-1.6,1.1-3.2,2.3-4.8,3.5c-29.6,22.5-48.7,58.1-48.7,98.1c0,61.5,45.2,112.7,104.2,121.9c0,0.2,0,0.4,0,0.6
	c0.7,14.7,1.2,29.5,1.5,44.3h-322.1c-10.7-43.8-45-78.6-88.5-90V587.2z M1186.9,1508.1c-3.9-8.1-6.2-17.2-6.2-26.8
	c0-30.5,22.2-55.8,51.3-60.9c3.4-0.6,7-1,10.6-1c19.9,0,37.6,9.5,48.9,24.2c8.1,10.5,12.9,23.5,12.9,37.7
	c0,34.1-27.8,61.8-61.8,61.8c-0.7,0-1.5-0.1-2.2-0.1C1216.8,1542.3,1196.6,1528.2,1186.9,1508.1z M1334.5,925.9
	c-2.4,115.3-17.5,226.3-44,327.8c-112.9-31.5-237.4-49.3-366.5-51.8V1012c19.2-5.1,36.6-14.6,51-27.5c0.5-0.4,0.9-0.8,1.4-1.3
	c0.5-0.4,0.9-0.9,1.4-1.3c1.5-1.4,2.9-2.8,4.3-4.3c0.5-0.5,0.9-1,1.4-1.5c1.1-1.2,2.2-2.4,3.2-3.7c0.6-0.7,1.2-1.4,1.7-2.1
	c10.6-12.9,18.5-28,23.2-44.5H1334.5z M861.2,64.8v459.6C737.4,522,618.5,505,511,474.9c4.6-14.4,9.3-28.6,14.4-42.6
	c0.2-0.7,0.5-1.3,0.7-1.9c2.5,0.2,5.1,0.3,7.7,0.3c68.1,0,123.5-55.4,123.5-123.4c0-29.8-10.6-57.2-28.3-78.5
	c0.6-0.8,1.2-1.7,1.8-2.5C698.3,131.9,777.8,76,861.2,64.8z M493.8,535.1c113.1,31.7,237.9,49.6,367.5,52.1v186
	c-43.6,11.5-77.8,46.2-88.5,90H450.6C452.8,747.9,467.5,636.8,493.8,535.1z M471.5,307.2c0-34.3,27.9-62.2,62.2-62.2
	c3,0,6,0.3,8.9,0.7c23.4,3.4,42.7,19.9,50.1,41.8c2.1,6.2,3.3,12.9,3.3,19.8c0,27.6-18.1,51.1-43.1,59.2c-6,2-12.5,3-19.2,3
	c-17.3,0-32.9-7.1-44.2-18.5C478.4,339.6,471.5,324.2,471.5,307.2z M664,94.8c-29.6,26.3-57.8,57.9-84.1,94.5
	c-0.6,0.8-1.2,1.7-1.8,2.5c0,0-0.1,0.1-0.1,0.1c-13.8-5.3-28.7-8.3-44.3-8.3c-34.6,0-65.9,14.3-88.3,37.2c-0.6,0.6-1.2,1.2-1.8,1.8
	c-0.3,0.4-0.7,0.7-1,1.1c-20.1,22-32.4,51.2-32.4,83.3c0,43.3,22.4,81.5,56.3,103.5c-0.2,0.7-0.5,1.4-0.7,2.1
	c-5.1,14.3-10,28.8-14.7,43.6c-54.7-18.6-105.9-40.8-152.4-66.4c-15.7-8.6-30.6-17.5-44.8-26.7C359.2,236.5,501.5,141.4,664,94.8z
	 M215.6,413.1c16.8,10.9,34.4,21.5,52.9,31.8c50.5,27.8,106,51.8,165.3,71.7c-28,107.6-43.7,225-45.9,346.6H63.3
	C69.1,696,124.7,541.2,215.6,413.1z M458.8,1039.5c17,11.3,28.3,30.7,28.3,52.6c0,16.1-6.1,30.8-16.1,42
	c-11.6,13-28.4,21.2-47.1,21.2c-5.5,0-10.8-0.8-15.8-2.1c-27.2-7.1-47.3-31.7-47.3-61.1c0-23.6,13.1-44.2,32.3-55.1
	c9.1-5.1,19.6-8.1,30.9-8.1C436.9,1028.9,448.8,1032.8,458.8,1039.5z M63.4,925.9H388c0.3,14.4,0.8,28.7,1.4,43
	c0.1,1.5,0.1,3.1,0.2,4.7c-51.4,14.9-89.1,62.4-89.1,118.6c0,67.1,53.9,121.9,120.7,123.4c0.3,1.5,0.7,3,1,4.6
	c3.9,17.6,8.1,35,12.6,52.1c-59.7,20-115.5,44.1-166.3,72.1c-17.9,9.8-34.8,20-51,30.5C126.2,1247.2,70,1092.8,63.4,925.9z
	 M256.1,1424.4c13.6-8.6,27.8-17.1,42.6-25.3c46.9-25.8,98.4-48.1,153.5-66.8c21.2,66.5,47.2,128.4,77.9,184.3
	c39.4,71.7,84.6,130,133.8,173.8C502.6,1644.1,361.1,1550,256.1,1424.4z M861.2,1720.3c-103-13.8-200-95.7-276.1-233.9
	c-28.7-52.2-53.1-110.2-73-172.5c107.2-29.9,225.7-46.8,349.1-49.3V1720.3z M861.2,1201.9c-129.2,2.5-253.6,20.2-366.5,51.8
	c-4.1-15.8-8-31.9-11.5-48.2c-0.3-1.5-0.7-3.1-1-4.6c38.8-20.8,65.3-61.8,65.3-108.8c0-58.3-40.6-107.3-95.1-120.1
	c-0.1-1.6-0.2-3.1-0.2-4.7c-0.7-13.7-1.1-27.5-1.4-41.4h323c4.6,16.5,12.7,31.7,23.3,44.6c0.6,0.7,1.1,1.4,1.7,2
	c0.6,0.7,1.2,1.4,1.8,2c2.3,2.6,4.7,5.1,7.3,7.5c0.4,0.4,0.8,0.8,1.2,1.1c0.5,0.5,1,0.9,1.5,1.3c14.3,12.8,31.7,22.3,50.8,27.4
	V1201.9z M860.3,946c-8-4.8-14.8-11.3-19.9-19.1c-6.5-9.8-10.3-21.6-10.3-34.3c0-10.9,2.9-21.2,7.8-30.2
	c5.3-9.5,13.1-17.5,22.4-23.2c9.4-5.7,20.4-9.1,32.2-9.1c11.8,0,22.8,3.3,32.2,9.1c9.3,5.7,17.1,13.6,22.4,23.2
	c5,9,7.8,19.3,7.8,30.2c0,12.7-3.8,24.4-10.3,34.3c-5.1,7.8-11.9,14.3-19.9,19.1c-9.4,5.7-20.4,9.1-32.2,9.1
	C880.8,955,869.8,951.7,860.3,946z M923.9,1720.3v-455.7c123.3,2.5,241.9,19.4,349.1,49.3c-4.6,14.3-9.3,28.4-14.4,42.2
	c-0.3,0.7-0.5,1.4-0.8,2.2c-0.1,0.2-0.1,0.4-0.2,0.6c-5-0.6-10-1-15.1-1c-48.9,0-91.3,28.6-111.3,70c-0.1,0.3-0.3,0.6-0.4,0.9
	c-0.4,0.8-0.7,1.5-1,2.3c-6.9,15.4-10.7,32.4-10.7,50.2c0,31.7,12,60.7,31.8,82.6c-0.2,0.3-0.5,0.6-0.7,1
	C1083.6,1655.6,1005.6,1709.4,923.9,1720.3z M1121.2,1690.4c28.7-25.6,56-56.1,81.7-91.3c0.2-0.2,0.4-0.5,0.5-0.8
	c12.3,4.1,25.5,6.4,39.2,6.4c68.1,0,123.4-55.4,123.4-123.5c0-17.8-3.8-34.8-10.7-50.2c-0.2-0.5-0.4-1-0.7-1.4
	c0-0.1-0.1-0.2-0.1-0.3c-8.8-18.8-22.2-35.1-38.7-47.4c0.1-0.1,0.1-0.3,0.2-0.4c0.3-0.7,0.5-1.5,0.8-2.2c5.6-15.4,11-31.1,16.1-47.1
	c55.1,18.7,106.7,41,153.5,66.8c14.9,8.2,29.1,16.6,42.7,25.3C1424,1550,1282.6,1644.1,1121.2,1690.4z M1676.5,1165.1
	c-26.3,75.4-63.2,145.9-108.8,209.6c-16.2-10.5-33.1-20.7-51-30.5c-50.8-27.9-106.6-52-166.3-72.1c28.3-107.4,44.3-224.7,46.8-346.2
	h324.6C1718.5,1009.4,1702.8,1089.7,1676.5,1165.1z"/>
<path class="st1" d="M630.7,226.1c-13.4-16.2-30.9-29-50.8-36.8c-0.2-0.1-0.5-0.2-0.7-0.3c-14.1-5.5-29.5-8.5-45.5-8.5
	c-35.5,0-67.6,14.7-90.5,38.3c-0.6,0.6-1.2,1.2-1.8,1.9c-0.3,0.4-0.7,0.7-1,1.1c-20.3,22.4-32.7,52.1-32.7,84.7
	c0,44.6,23.2,83.8,58.1,106.2c17.4,11.2,37.7,18.1,59.6,19.6c2.8,0.2,5.5,0.3,8.4,0.3c69.6,0,126-56.4,126-126
	C659.7,276,648.8,248,630.7,226.1z M489.5,350.9c-11.1-11.3-18-26.7-18-43.7c0-34.3,27.9-62.2,62.2-62.2c3,0,6,0.3,8.9,0.7
	c23.4,3.4,42.7,19.9,50.1,41.8c2.1,6.2,3.3,12.9,3.3,19.8c0,27.6-18.1,51.1-43.1,59.2c-6,2-12.5,3-19.2,3
	C516.4,369.4,500.8,362.3,489.5,350.9z"/>
<path class="st1" d="M1015.5,863.2c-11-45.3-46.4-81.1-91.6-92.6c-10-2.6-20.5-3.9-31.3-3.9c-10.8,0-21.3,1.4-31.4,3.9
	c-45.1,11.5-80.6,47.3-91.6,92.6c-2.3,9.6-3.6,19.6-3.6,29.9c0,11.3,1.5,22.3,4.3,32.8c4.7,17.4,12.9,33.3,23.9,46.8
	c0.6,0.7,1.2,1.4,1.7,2.1c0.6,0.7,1.2,1.4,1.8,2.1c2.4,2.7,4.9,5.3,7.5,7.7c0.4,0.4,0.8,0.8,1.2,1.2c0.5,0.5,1,0.9,1.5,1.4
	c14.7,13.2,32.5,23.1,52.3,28.3c0.3,0.1,0.6,0.1,0.9,0.2c10,2.6,20.5,3.9,31.4,3.9c10.8,0,21.3-1.4,31.3-3.9
	c0.3-0.1,0.6-0.1,0.9-0.2c19.8-5.2,37.7-15.1,52.4-28.4c0.5-0.4,0.9-0.9,1.4-1.3c0.5-0.4,1-0.9,1.4-1.4c1.5-1.4,3-2.9,4.4-4.4
	c0.5-0.5,0.9-1,1.4-1.5c1.1-1.2,2.2-2.5,3.3-3.8c0.6-0.7,1.2-1.4,1.8-2.1c11-13.5,19.2-29.4,23.8-46.7c2.8-10.5,4.3-21.4,4.3-32.8
	C1019.1,882.8,1017.8,872.8,1015.5,863.2z M892.6,955c-11.8,0-22.8-3.4-32.2-9.1c-8-4.8-14.8-11.3-19.9-19.1
	c-6.5-9.8-10.3-21.6-10.3-34.3c0-10.9,2.9-21.2,7.8-30.2c5.3-9.5,13.1-17.5,22.4-23.2c9.4-5.7,20.4-9.1,32.2-9.1
	c11.8,0,22.8,3.3,32.2,9.1c9.3,5.7,17.1,13.6,22.4,23.2c5,9,7.8,19.3,7.8,30.2c0,12.7-3.8,24.4-10.3,34.3
	c-5.1,7.8-11.9,14.3-19.9,19.1C915.4,951.7,904.4,955,892.6,955z"/>
<path class="st1" d="M1421.9,592.8c-0.4-0.3-0.8-0.6-1.3-0.8c-2.1-1.4-4.3-2.8-6.6-4.1c-0.4-0.2-0.7-0.4-1.1-0.6
	c-0.9-0.5-1.8-1-2.6-1.4c-0.4-0.2-0.8-0.4-1.2-0.6c-1.4-0.7-2.8-1.4-4.2-2.1c-0.9-0.4-1.8-0.8-2.8-1.2c-1.1-0.5-2.1-0.9-3.2-1.3
	c-0.5-0.2-1.1-0.4-1.6-0.6c-0.6-0.2-1.1-0.4-1.6-0.6c-0.4-0.2-0.8-0.3-1.2-0.4c-0.6-0.2-1.3-0.5-1.9-0.7c-0.6-0.2-1.2-0.4-1.8-0.6
	c-1-0.3-1.9-0.6-2.9-0.9c-1.3-0.4-2.6-0.8-3.9-1.1c-0.5-0.2-1.1-0.3-1.6-0.4c-0.6-0.1-1.3-0.3-1.9-0.4c-1-0.2-2-0.5-3-0.7
	c-0.6-0.1-1.1-0.2-1.7-0.3c-0.9-0.2-1.8-0.3-2.7-0.5c-0.1,0-0.1,0-0.2,0c-0.9-0.1-1.7-0.3-2.6-0.4c-0.4-0.1-0.9-0.1-1.3-0.2
	c-0.7-0.1-1.3-0.2-2-0.2c-0.4-0.1-0.8-0.1-1.3-0.1c-0.2,0-0.4-0.1-0.6-0.1c-0.2,0-0.3,0-0.5,0c-4-0.4-8.1-0.6-12.2-0.6
	c-17.7,0-34.6,3.7-49.8,10.4c-0.1,0-0.2,0.1-0.3,0.1c-3.4,1.5-6.8,3.2-10.1,5c-0.6,0.4-1.3,0.7-2,1.1c-0.6,0.4-1.3,0.7-1.9,1.1
	c-0.6,0.4-1.2,0.7-1.8,1.1c-0.4,0.3-0.8,0.5-1.3,0.8c-0.6,0.4-1.1,0.7-1.7,1.1c-0.7,0.4-1.4,0.9-2.1,1.4c-1.6,1.1-3.2,2.3-4.8,3.5
	c-29.7,22.7-48.8,58.5-48.8,98.8c0,62.2,45.6,113.7,105.2,123c6.3,1,12.7,1.5,19.2,1.5c15.2,0,29.8-2.7,43.2-7.7
	c47.4-17.6,81.2-63.2,81.2-116.7C1476.8,653,1455,615.1,1421.9,592.8z M1352.3,757.8c-8.6,0-16.7-1.8-24.1-4.9
	c-21.9-9.4-37.3-31.2-37.3-56.5c0-19.8,9.4-37.3,23.9-48.6c10.4-8,23.4-12.9,37.5-12.9c9.1,0,17.7,2.1,25.5,5.6
	c21.1,9.7,35.9,31.1,35.9,55.8c0,19.2-8.8,36.3-22.7,47.6C1380.5,752.6,1367,757.8,1352.3,757.8z"/>
<path class="st1" d="M1357.4,1430.3c-0.2-0.5-0.4-1-0.7-1.5c0-0.1-0.1-0.2-0.1-0.3c-8.8-19.4-22.4-36.1-39.2-48.7
	c-0.2-0.1-0.4-0.3-0.5-0.4c-16.7-12.3-36.6-20.6-58.2-23.4c-0.2,0-0.3,0-0.5-0.1c-5.1-0.7-10.3-1-15.6-1
	c-50.1,0-93.3,29.4-113.3,71.8c-0.1,0.3-0.3,0.6-0.4,0.9c-0.4,0.8-0.7,1.6-1.1,2.3c-6.7,15.4-10.4,32.3-10.4,50.2
	c0,32.6,12.5,62.3,32.9,84.6c14.2,15.5,32.2,27.4,52.6,34.2c12.5,4.2,25.8,6.4,39.7,6.4c69.2,0,125.2-56.1,125.2-125.2
	C1367.8,1462.5,1364.1,1445.6,1357.4,1430.3z M1186.9,1508.1c-3.9-8.1-6.2-17.2-6.2-26.8c0-30.5,22.2-55.8,51.3-60.9
	c3.4-0.6,7-1,10.6-1c19.9,0,37.6,9.5,48.9,24.2c8.1,10.5,12.9,23.5,12.9,37.7c0,34.1-27.8,61.8-61.8,61.8c-0.7,0-1.5-0.1-2.2-0.1
	C1216.8,1542.3,1196.6,1528.2,1186.9,1508.1z"/>
<path class="st1" d="M452.1,967.3c-9.1-2-18.5-3.1-28.2-3.1c-12,0-23.6,1.6-34.5,4.7c-53.9,15.1-93.4,64.5-93.4,123.2
	c0,70.1,56.3,127,126.2,127.9c0.6,0,1.2,0,1.8,0c21.4,0,41.5-5.2,59.2-14.5c40.9-21.4,68.7-64.2,68.7-113.5
	C551.9,1031.1,509.2,980.1,452.1,967.3z M424,1155.3c-5.5,0-10.8-0.8-15.8-2.1c-27.2-7.1-47.3-31.7-47.3-61.1
	c0-23.6,13.1-44.2,32.3-55.1c9.1-5.1,19.6-8.1,30.9-8.1c12.9,0,24.9,3.9,34.9,10.5c17,11.3,28.3,30.7,28.3,52.6
	c0,16.1-6.1,30.8-16.1,42C459.5,1147.1,442.7,1155.3,424,1155.3z"/>
</svg>
