<?xml version="1.0" encoding="utf-8"?>
<!-- Generator: Adobe Illustrator 26.0.0, SVG Export Plug-In . SVG Version: 6.00 Build 0)  -->
<svg version="1.1" id="RESPONSIVE" xmlns="http://www.w3.org/2000/svg" xmlns:xlink="http://www.w3.org/1999/xlink" x="0px" y="0px"
	 viewBox="0 0 1800 1800" style="enable-background:new 0 0 1800 1800;" xml:space="preserve">
<style type="text/css">
	.st0{fill:#0050FF;}
	.st1{fill:#333333;}
</style>
<path class="st0" d="M1610.2,437.5l168.2-33.3c11.8-2.4,19.4-13.8,17-25.6c-2.4-11.8-13.8-19.4-25.6-17l-168.2,33.3
	c-11.8,2.4-19.4,13.8-17,25.6S1598.5,439.9,1610.2,437.5z"/>
<path class="st0" d="M1584.6,1074c-2.4,11.8,5.2,23.2,17,25.6l168.2,33.3c11.8,2.4,23.2-5.2,25.6-17c2.4-11.8-5.2-23.2-17-25.6
	l-168.2-33.3C1598.5,1054.7,1587,1062.3,1584.6,1074z"/>
<path class="st0" d="M1594.3,763.3l179.1-1.3c11.7,2.7,23.4-4.6,26-16.4c2.7-11.7-4.6-23.4-16.4-26l-179.1,1.3
	c-11.7-2.7-23.4,4.6-26,16.4C1575.3,749,1582.6,760.6,1594.3,763.3z"/>
<g>
	<path class="st1" d="M1453.4,480.1c-15.2-72.6-36.7-144.5-64.5-215.2c-1.6-4-3.1-8-4.7-11.9c-16.4-39.5-52.5-67.1-87.7-67.1
		c-6.6,0-13,1-18.9,2.9c-69.8,21.9-139.4,48.4-206.7,74c-147.4,56.1-299.8,114.1-458.4,124.1c-18.2,1.2-34.4,7.1-47.1,16.3
		c-10.7-8.5-24-13.7-38.5-13.7H203.2c-34.7,0-63,29.3-63,65.3v114.8c-4.1-0.8-8.4-1.3-12.8-1.3H64.8C29.1,568.3,0,597.6,0,633.5
		v215.8c0,36,29.1,65.2,64.8,65.2h62.5c4.4,0,8.7-0.5,12.8-1.3v114.8c0,36,28.3,65.3,63,65.3h76.9L551.5,1564
		c18.1,31.4,52,51,88.3,51c17.8,0,35.3-4.7,50.8-13.6c48.6-28.1,65.4-90.4,37.3-139.1l-212.7-368.8H527c14.5,0,27.8-5.1,38.5-13.7
		c12.7,9.2,28.9,15.1,47.1,16.3c158.5,10,310.9,68,458.3,124.1c67.3,25.6,136.9,52.1,206.6,74c6.1,1.9,12.5,2.9,19.1,2.9
		c35.2,0,71.3-27.6,87.8-67.3c1.6-3.9,3-7.8,4.6-11.7c27.8-70.6,49.3-142.4,64.4-215c12.5-78.7,19.2-168.3,19.2-261.5
		C1472.6,648.3,1465.9,558.8,1453.4,480.1z M127.4,862.6H64.8c-7.1,0-12.8-5.9-12.8-13.2V633.5c0-7.3,5.7-13.2,12.8-13.2h62.5
		c7.1,0,12.8,5.9,12.8,13.2v215.8C140.2,856.7,134.4,862.6,127.4,862.6z M682.8,1488.2c13.7,23.8,5.5,54.3-18.3,68
		c-7.6,4.4-16.2,6.7-24.8,6.7c-17.8,0-34.4-9.6-43.2-24.9l-256.4-444.6h115L682.8,1488.2z M527,1041.4h-41.9h-60h-115h-60h-46.9
		c-6,0-11-6.1-11-13.2V849.4V633.5V454.8c0-7.3,4.9-13.2,11-13.2H527c6.1,0,11,5.9,11,13.2v573.4
		C538.1,1035.5,533.1,1041.4,527,1041.4z M1089.4,1171.5c-151-57.5-307.2-116.9-473.5-127.4c-15.5-1-25.9-9.6-25.9-14.9v-1.1V454.8
		v-1.1c0-5.3,10.3-13.9,25.8-14.9c166.4-10.5,322.5-69.9,473.5-127.4c46.3-17.6,93.7-35.6,141.2-52.2
		c-17.2,27.7-32.4,65.8-45.6,114.3c-12.5,46.1-22.3,99.2-29.3,156.8c-2.1,17.5-4,35.3-5.5,53.5c-4.3,50.4-6.6,103.4-6.6,157.6
		c0,54.3,2.3,107.2,6.6,157.6c1.6,18.2,3.4,36.1,5.5,53.5c7,57.6,16.8,110.7,29.3,156.8c13.2,48.5,28.4,86.7,45.6,114.3
		C1183.1,1207.2,1135.7,1189.2,1089.4,1171.5z M1195.6,741.5c0-52.9,2.2-104.5,6.5-153.5c48.2,19.4,83.4,80.8,83.4,153.5
		c0,72.6-35.3,134.1-83.4,153.5C1197.8,846,1195.6,794.4,1195.6,741.5z M1401.7,997c-5.7,35.6-12.7,68.8-20.8,98.8
		c-12.7,46.7-26.1,77.8-38.3,97.9c-14.7,24.3-27.5,32.5-34.6,32.5c-13,0-44.9-27.3-72.8-130.4c-11.8-43.4-21.1-93.5-27.7-147.9
		c74.4-21.8,129.9-106,129.9-206.4s-55.6-184.6-129.9-206.4c6.7-54.5,15.9-104.6,27.7-147.9c28-103.1,59.9-130.4,72.8-130.4
		c7.1,0,19.9,8.2,34.6,32.5c12.2,20.1,25.6,51.2,38.3,97.9c8.2,30.1,15.1,63.4,20.9,99.2C1438,655.6,1438,827.7,1401.7,997z"/>
</g>
</svg>
