<?xml version="1.0" encoding="utf-8"?>
<!-- Generator: Adobe Illustrator 26.0.0, SVG Export Plug-In . SVG Version: 6.00 Build 0)  -->
<svg version="1.1" id="Layer_1" xmlns="http://www.w3.org/2000/svg" xmlns:xlink="http://www.w3.org/1999/xlink" x="0px" y="0px"
	 viewBox="0 0 45 32.9" style="enable-background:new 0 0 45 32.9;" xml:space="preserve">
<style type="text/css">
	.st0{fill:#303030;}
	.st1{fill:#0050FF;}
</style>
<g>
	<g>
		<rect x="7.9" y="16" class="st0" width="37.1" height="0.9"/>
	</g>
	<g>
		<rect x="7.9" y="30" class="st0" width="37.1" height="0.9"/>
	</g>
	<g>
		<rect x="7.9" y="2" class="st0" width="37.1" height="0.9"/>
	</g>
	<g>
		<path class="st1" d="M2.4,18.9c-1.3,0-2.4-1.1-2.4-2.4S1.1,14,2.4,14s2.4,1.1,2.4,2.4S3.8,18.9,2.4,18.9z M2.4,14.9
			c-0.8,0-1.5,0.7-1.5,1.5c0,0.8,0.7,1.5,1.5,1.5S4,17.3,4,16.4C4,15.6,3.3,14.9,2.4,14.9z"/>
	</g>
	<g>
		<path class="st1" d="M2.4,32.9c-1.3,0-2.4-1.1-2.4-2.4C0,29.1,1.1,28,2.4,28s2.4,1.1,2.4,2.4C4.9,31.8,3.8,32.9,2.4,32.9z
			 M2.4,28.9c-0.8,0-1.5,0.7-1.5,1.5c0,0.8,0.7,1.5,1.5,1.5S4,31.3,4,30.4C4,29.6,3.3,28.9,2.4,28.9z"/>
	</g>
	<g>
		<path class="st1" d="M2.4,4.9C1.1,4.9,0,3.8,0,2.4S1.1,0,2.4,0s2.4,1.1,2.4,2.4S3.8,4.9,2.4,4.9z M2.4,0.9c-0.8,0-1.5,0.7-1.5,1.5
			S1.6,4,2.4,4S4,3.3,4,2.4S3.3,0.9,2.4,0.9z"/>
	</g>
</g>
</svg>
