<svg xmlns="http://www.w3.org/2000/svg" viewBox="0 0 500 500"><g id="freepik--background-complete--inject-2"><path d="M87.59,279.71,74.47,280l-6.66.11c-2.23,0-4.47,0-6.7.06h-.44v-.45l-.06-11.19V268h.5l13.24.06c4.42,0,8.83.12,13.24.17h.28v.27c0,1.9-.09,3.79-.13,5.66Zm0,0-.14-5.65c0-1.87-.11-3.71-.13-5.54l.27.27c-4.41.06-8.82.16-13.24.17L61.11,269l.5-.5,0,11.19-.45-.44c2.18,0,4.36,0,6.55.05l6.58.11Z" style="fill:#ebebeb"></path><path d="M72.82,293.82l-13.12.28-6.66.11c-2.23.05-4.47,0-6.7.06H45.9v-.45l-.06-11.19v-.5h.5l13.24.06c4.41,0,8.83.12,13.24.17h.28v.27c0,1.9-.08,3.79-.13,5.65Zm0,0-.14-5.65c-.05-1.87-.11-3.71-.13-5.54l.27.27c-4.41.06-8.83.16-13.24.17l-13.24.06.5-.5-.05,11.19-.45-.44c2.18,0,4.36,0,6.55.05l6.58.11Z" style="fill:#ebebeb"></path><path d="M363.58,366.85l-13.12.28-6.66.11c-2.23.05-4.47,0-6.7.05h-.44v-.45l-.06-11.19v-.5h.5l13.24.06c4.42,0,8.83.11,13.24.16h.28v.27c0,1.9-.09,3.78-.14,5.65Zm0,0-.14-5.66c0-1.86-.11-3.7-.13-5.53l.27.27c-4.41.05-8.82.16-13.24.16l-13.24.07.5-.5-.05,11.19-.45-.45c2.18,0,4.36,0,6.55.06l6.58.11Z" style="fill:#ebebeb"></path><path d="M348.81,381l-13.12.28-6.67.11c-2.22,0-4.46,0-6.69,0h-.44V381l-.05-11.19v-.5h.5l13.24.06c4.41,0,8.83.11,13.24.16h.28v.27c0,1.9-.08,3.78-.13,5.65Zm0,0-.14-5.66c-.05-1.86-.11-3.7-.13-5.53l.27.27c-4.41,0-8.83.16-13.24.16l-13.24.07.5-.5L322.78,381l-.45-.45c2.18,0,4.36,0,6.55.06l6.57.11Z" style="fill:#ebebeb"></path><path d="M453.66,298l-13.13.28-6.66.11c-2.22.05-4.46,0-6.69.06h-.45V298l-.05-11.19v-.5h.5l13.24.06c4.41,0,8.83.12,13.24.17h.27v.27c0,1.9-.08,3.79-.13,5.65Zm0,0-.14-5.65c0-1.87-.12-3.71-.13-5.54l.27.27c-4.41.05-8.83.16-13.24.17l-13.24.06.5-.5L427.62,298l-.44-.45c2.18,0,4.36,0,6.54.06l6.58.11Z" style="fill:#ebebeb"></path><path d="M438.89,61.14l-13.13.28-6.66.11c-2.22,0-4.46,0-6.69.06H412v-.45l0-11.19v-.5h.51l13.24.06c4.41,0,8.82.12,13.24.17h.27V50c0,1.9-.09,3.79-.13,5.66Zm0,0-.14-5.65c-.05-1.87-.12-3.71-.14-5.54l.28.27c-4.42.06-8.83.16-13.24.17l-13.24.06.5-.5-.06,11.19-.44-.44c2.18,0,4.35,0,6.54,0l6.58.11Z" style="fill:#ebebeb"></path><path d="M453.66,75.25l-13.13.28-6.66.11c-2.22,0-4.46,0-6.69.06h-.45v-.45l-.05-11.19v-.5h.5l13.24.06c4.41,0,8.83.12,13.24.17h.27v.27c0,1.9-.08,3.79-.13,5.66Zm0,0-.14-5.65c0-1.87-.12-3.71-.13-5.54l.27.27c-4.41.06-8.83.16-13.24.17l-13.24.06.5-.5-.06,11.19-.44-.44c2.18,0,4.36,0,6.54,0l6.58.11Z" style="fill:#ebebeb"></path><path d="M87.59,61.14l-13.12.28-6.66.11c-2.23,0-4.47,0-6.7.06h-.44v-.45L60.61,50v-.5h.5l13.24.06c4.42,0,8.83.12,13.24.17h.28V50c0,1.9-.09,3.79-.13,5.66Zm0,0-.14-5.65c0-1.87-.11-3.71-.13-5.54l.27.27c-4.41.06-8.82.16-13.24.17l-13.24.06.5-.5,0,11.19-.45-.44c2.18,0,4.36,0,6.55,0l6.58.11Z" style="fill:#ebebeb"></path><path d="M193.83,134.32l-13.12.28-6.66.11c-2.23,0-4.47,0-6.7.06h-.44v-.45l-.06-11.19v-.5h.5l13.24.06c4.42,0,8.83.11,13.24.16h.28v.27c0,1.9-.09,3.79-.14,5.66Zm0,0-.14-5.65c0-1.86-.11-3.7-.13-5.54l.27.28c-4.41,0-8.82.16-13.24.16l-13.24.06.5-.5,0,11.19-.45-.44c2.18,0,4.36,0,6.55.05l6.58.12Z" style="fill:#ebebeb"></path><rect x="395.18" y="73.57" width="52.41" height="52.41" style="fill:#fff"></rect><path d="M392.45,70.85v57.86h57.87V70.85ZM447.59,126H395.18V73.57h52.41Z" style="fill:#dbdbdb"></path><rect x="414.34" y="86.35" width="18.12" height="40.85" transform="translate(530.17 -316.62) rotate(90)" style="fill:#ebebeb"></rect><rect x="410.92" y="89.31" width="20.93" height="20.93" transform="translate(521.17 -321.61) rotate(90)" style="fill:#c7c7c7"></rect><rect x="450.32" y="70.84" width="2.23" height="57.87" style="fill:#c7c7c7"></rect><rect x="395.18" y="148" width="52.41" height="52.41" style="fill:#fff"></rect><rect x="404.19" y="156.38" width="13.69" height="39.53" style="fill:#c7c7c7"></rect><path d="M392.45,145.27v57.87h57.87V145.27Zm55.14,55.14H395.18V148h52.41Z" style="fill:#dbdbdb"></path><rect x="410.92" y="163.74" width="20.93" height="20.93" style="fill:#ebebeb"></rect><rect x="450.32" y="145.27" width="2.23" height="57.87" style="fill:#c7c7c7"></rect><rect x="395.18" y="222.42" width="52.41" height="52.41" style="fill:#fff"></rect><rect x="401" y="229.56" width="28.76" height="17.19" style="fill:#ebebeb"></rect><path d="M392.45,219.69v57.87h57.87V219.69Zm55.14,55.14H395.18V222.42h52.41Z" style="fill:#dbdbdb"></path><rect x="410.92" y="238.16" width="20.93" height="20.93" style="fill:#c7c7c7"></rect><rect x="450.32" y="219.69" width="2.23" height="57.87" style="fill:#c7c7c7"></rect></g><g id="freepik--Plant--inject-2"><path d="M398.93,391.83s-15.88-3.6-24.59-11.62-13.56-22.39-13.56-22.39a138.21,138.21,0,0,1,17.81,4.68,29.94,29.94,0,0,1,5.38,7.62,36.92,36.92,0,0,0,0-5.45,24.34,24.34,0,0,1,5.65,3.44C396.89,374.42,398.93,391.83,398.93,391.83Z" style="fill:#0050FF"></path><path d="M370.69,364.81c-2.16-1.5-4.37-2.95-6.52-4.46a.12.12,0,0,1,.13-.21c4.09,2.45,8.12,5.06,12,7.79,1.36,1,2.69,1.95,4,3-.1-.15-.19-.31-.28-.47-.48-.8-1-1.58-1.48-2.36a33.61,33.61,0,0,0-3.37-4.5.05.05,0,1,1,.08-.07c1.23,1.42,2.46,2.83,3.59,4.34.54.72,1,1.47,1.51,2.23q.38.58.72,1.2c.07.13.16.27.23.41,2.06,1.61,4.06,3.29,6,5.07q1.76,1.65,3.41,3.41c-.62-1.92-1.15-3.87-1.87-5.76,0-.06.09-.09.11,0,.69,2,1.45,4,2,6,1.22,1.32,2.38,2.68,3.48,4.1l-.06-.26c-.18-.75-.37-1.5-.57-2.24-.38-1.44-.81-2.86-1.29-4.27a24.62,24.62,0,0,0-4.27-8.06s0-.13.08-.07a30.94,30.94,0,0,1,6.08,12.7c.17.67.33,1.35.49,2,.08.36.17.73.24,1.1.48.65.95,1.3,1.4,2a69.91,69.91,0,0,1,6.72,13.18,154.83,154.83,0,0,1,5.09,15.86.09.09,0,0,1-.17.05c-3.1-9.3-6.27-18.72-11.59-27a62.33,62.33,0,0,0-3.63-5.07,29.88,29.88,0,0,1-7.72-1.54,33.92,33.92,0,0,1-7.74-3.74,46.14,46.14,0,0,1-4-3c-.06-.05,0-.14.06-.09a31.78,31.78,0,0,0,7.28,4.41,39.72,39.72,0,0,0,8,2.69c1.17.25,2.36.44,3.55.6a65.62,65.62,0,0,0-4.68-5.19c-.54-.53-1.09-1-1.64-1.56a37.9,37.9,0,0,0-5.87-3.36c-2.6-1.26-5.16-2.59-7.74-3.9-1.45-.74-2.9-1.5-4.36-2.21-.06,0,0-.12.06-.09,2.61,1.26,5.26,2.43,7.89,3.64s5,2.28,7.37,3.61l.3.18c-2.15-1.87-4.38-3.66-6.66-5.38Q374,367.07,370.69,364.81Z" style="fill:#263238"></path><path d="M371.6,373c1.29.57,2.6,1.07,3.88,1.67s2.56,1.33,3.81,2.07c0,0,0,.11-.05.08-1.27-.6-2.55-1.17-3.81-1.8s-2.55-1.34-3.87-1.91A.06.06,0,0,1,371.6,373Z" style="fill:#263238"></path><path d="M450.51,311.81A22.66,22.66,0,0,0,445.76,325c-.05,1.43.18,3.41.34,5.75a37.67,37.67,0,0,0-10.36,8.85,18.76,18.76,0,0,1,10.47-2.5,30.78,30.78,0,0,1-.61,4.74,18,18,0,0,0-6.73,1.33,15.16,15.16,0,0,1,6.07,1.21c-2.83,9-11.24,18.26-34.48,22.19a48.77,48.77,0,0,1,4.12-32.7C421.54,320.17,450.51,311.81,450.51,311.81Z" style="fill:#0050FF"></path><path d="M402.42,405.09q.61-5.77,1.51-11.51a231.48,231.48,0,0,1,4.68-22.74A90.08,90.08,0,0,1,412,360.48a14.57,14.57,0,0,1-.09-1.86c0-.75,0-1.49,0-2.24,0-1.48.09-3,.21-4.45a53.28,53.28,0,0,1,1.43-8.71c.42-1.66.92-3.29,1.4-4.93,0-.06.13,0,.11,0a64.34,64.34,0,0,0-1.72,8.7,82.09,82.09,0,0,0-.78,8.72c0,.8,0,1.6,0,2.39,0,.34,0,.69,0,1a76.39,76.39,0,0,1,3.92-8.1,98.59,98.59,0,0,1,7.95-11.9,4.81,4.81,0,0,1,.19-1.3c.11-.52.22-1,.34-1.55.24-1.07.5-2.12.79-3.17.58-2.1,1.34-4.14,2-6.22,0-.06.12,0,.1,0-.61,2.06-1,4.19-1.49,6.29l-.69,3.11-.33,1.55s0,.08,0,.12q1.41-1.77,2.88-3.5c4.43-5.2,9.3-10,14.19-14.77.61-.59,1.22-1.16,1.83-1.73,0,0,.13,0,.08.07-4.68,4.89-9.29,9.82-13.65,15q-1.56,1.85-3.06,3.73l1.58-1.05c1.36-.88,2.72-1.75,4.13-2.53s2.84-1.57,4.28-2.28,3.09-1.34,4.52-2.18c.06,0,.12.07.06.09a33.65,33.65,0,0,0-4.24,2.35c-1.42.84-2.83,1.69-4.22,2.57s-2.74,1.72-4.09,2.6c-1.13.73-2.25,1.54-3.42,2.21a108.3,108.3,0,0,0-7.44,10.84,79.28,79.28,0,0,0-3.85,7.29l.83-.36,2.13-.94,4.11-1.8c2.61-1.13,5.25-2.17,7.81-3.41a36.9,36.9,0,0,0,4.17-2.32c.06,0,.11.05.05.09-4.76,3.29-10.1,5.6-15.37,7.93l-2.29,1c-.63.27-1.26.58-1.9.83a80.85,80.85,0,0,0-3.93,10.76A218.59,218.59,0,0,0,405.39,391c-1.33,7.59-2.23,15.23-2.93,22.9-.09,1-.17,1.91-.28,2.87a.31.31,0,0,1-.61,0C401.62,412.86,402,409,402.42,405.09Z" style="fill:#263238"></path><path d="M416.56,340.93c.42-2.37,1.05-4.68,1.69-7,0-.06.12,0,.1,0-.59,2.27-1,4.59-1.43,6.89s-.82,4.71-1.15,7.07c0,0-.07,0-.07,0A63.4,63.4,0,0,1,416.56,340.93Z" style="fill:#263238"></path><path d="M426.57,347.33a41.63,41.63,0,0,1,5.05-2.84c.85-.44,1.71-.86,2.56-1.27s1.81-.79,2.68-1.23c.07,0,.12.07.06.1-.85.42-1.66.94-2.49,1.39l-2.58,1.42c-1.7.91-3.37,1.92-5.15,2.66A.13.13,0,0,1,426.57,347.33Z" style="fill:#263238"></path><path d="M398.64,364.32s-14.7-3.51-21.44-13.36c-6.45-9.42-8.53-25.46-8.69-26.88.26,1.3,3.29,15.32,13.3,21.86C389.46,350.94,396.87,355.06,398.64,364.32Z" style="fill:#263238;opacity:0.1"></path><path d="M385.07,338.94a18.69,18.69,0,0,1,5.42,8.92s0,0,0,0A22,22,0,0,0,385,339C385,339,385,338.89,385.07,338.94Z" style="fill:#263238"></path><path d="M398.64,364.32s-14.7-3.51-21.44-13.36c-6.45-9.42-8.53-25.46-8.69-26.88a.32.32,0,0,1,0-.09s7,10,14.45,12.57S400.76,348,398.64,364.32Z" style="fill:#0050FF"></path><path d="M371.09,329.51a60.86,60.86,0,0,0,4.54,7.77,31.28,31.28,0,0,0,6.05,6.22c2,1.58,4.11,3,6.13,4.57l-.05-.07c-.38-.56-.78-1.11-1.2-1.64-.84-1.08-1.76-2.09-2.69-3.1-1.82-2-3.69-3.92-5.33-6.07a22.39,22.39,0,0,1-2.35-3.79c0-.06.07-.1.1,0,2.38,5,7.14,8.15,10.54,12.34a22.72,22.72,0,0,1,1.36,1.86,7.74,7.74,0,0,1,.84,1.49,31.27,31.27,0,0,1,5,5.07,22.5,22.5,0,0,0-.59-2.85,14.52,14.52,0,0,0-1.56-3.72.05.05,0,1,1,.09-.06,17.41,17.41,0,0,1,1.71,3.69,12.84,12.84,0,0,1,.54,3.18h0a29.31,29.31,0,0,1,2,3.08l-.18-.94c-.29-1.46-.62-2.92-1-4.37a26.24,26.24,0,0,0-3.53-8.27.05.05,0,0,1,.09-.06,31.53,31.53,0,0,1,3.92,8.09c.46,1.45.84,2.91,1.17,4.39.16.72.31,1.45.44,2.18.08.37.16.76.22,1.15a52.46,52.46,0,0,1,3.39,10,145.86,145.86,0,0,1,3.13,18.58,152.8,152.8,0,0,1,1,19.72c0,.83-.06,1.65-.1,2.48,0,.21-.33.24-.34,0-.15-3.26-.23-6.52-.43-9.78s-.47-6.52-.82-9.76a176.42,176.42,0,0,0-3.06-19c-1.19-5.37-2.74-10.78-5.68-15.49a29.07,29.07,0,0,0-5.3-6.3c-2.06-1.85-4.31-3.47-6.48-5.18a35.81,35.81,0,0,1-5.95-5.72,46.18,46.18,0,0,1-4.67-7.59l-1.06-2C371,329.51,371.06,329.45,371.09,329.51Z" style="fill:#263238"></path><path d="M373.63,331.67a50.56,50.56,0,0,0,3.27,5.72s0,.09-.07,0a39.24,39.24,0,0,1-3.3-5.73C373.5,331.64,373.6,331.6,373.63,331.67Z" style="fill:#263238"></path><path d="M452.56,357.82s.23,20.89-12.26,26.91-19.17,1-27.66,3h0c.33-.5,6.38-9.2,16-11.6C438.58,373.68,449.55,366.53,452.56,357.82Z" style="fill:#0050FF"></path><path d="M452.56,357.82s.23,20.89-12.26,26.91-19.17,1-27.66,3h0a47.23,47.23,0,0,1,14.19-4.19C434.72,382.61,449.76,377.48,452.56,357.82Z" style="opacity:0.1"></path><path d="M411.82,388.13a21.21,21.21,0,0,1,5-3.36c.26-.13.54-.23.81-.35a6.27,6.27,0,0,1,.42-.48,13.81,13.81,0,0,1,1.18-1.11,17.26,17.26,0,0,1,2.51-1.82c2.07-1.21,4.33-2.06,6.45-3.19.06,0,.11.06,0,.09-1,.54-2.06,1.14-3.08,1.74s-2,1.12-3,1.75a20.12,20.12,0,0,0-2.47,1.85c-.22.19-.43.4-.64.61a34.05,34.05,0,0,1,4.22-1.12c2.28-.46,4.6-.79,6.88-1.27a31.74,31.74,0,0,0,3.31-.9c1-.83,2.07-1.66,3-2.57a25.41,25.41,0,0,0,3.23-3.57c0-.06.13,0,.09.05a38,38,0,0,1-5.12,5.65c.54-.2,1.07-.42,1.6-.66A25.87,25.87,0,0,0,447,370.62c0-.06.13,0,.09.05a29.26,29.26,0,0,1-8.61,8.27,25.79,25.79,0,0,1-5.44,2.57,50.54,50.54,0,0,1-6.75,1.6,46.84,46.84,0,0,0-6.62,1.57,20.06,20.06,0,0,0-5.55,2.92,26,26,0,0,0-7.48,9.28,46.71,46.71,0,0,0-4.12,15.27c0,.22-.37.22-.36,0C402.71,403.36,405.05,394.23,411.82,388.13Z" style="fill:#263238"></path><path d="M426.31,381.32a7.17,7.17,0,0,1,2.57-2.32,9.68,9.68,0,0,0,3.05-2.53.05.05,0,1,1,.09.06,10.19,10.19,0,0,1-2.7,2.41,9.3,9.3,0,0,0-2.93,2.43A0,0,0,0,1,426.31,381.32Z" style="fill:#263238"></path><polygon points="419.69 403.54 419.12 415.03 417.38 450.11 391.18 450.11 389.44 415.03 388.87 403.54 419.69 403.54" style="fill:#455a64"></polygon><polygon points="419.69 403.54 419.12 415.03 389.44 415.03 388.87 403.54 419.69 403.54" style="fill:#37474f"></polygon><rect x="387.04" y="398.75" width="34.48" height="10.95" style="fill:#455a64"></rect></g><g id="freepik--Floor--inject-2"><polygon points="47.44 449.57 98.08 449.32 148.72 449.24 250 449.07 351.28 449.24 401.92 449.32 452.56 449.57 401.92 449.81 351.28 449.9 250 450.07 148.72 449.9 98.08 449.81 47.44 449.57" style="fill:#263238"></polygon></g><g id="freepik--Device--inject-2"><path d="M381.72,61.14H210.21a17.52,17.52,0,0,0-17.35,17.68V431.89a17.53,17.53,0,0,0,17.35,17.68H381.72a17.54,17.54,0,0,0,17.37-17.68V78.82A17.53,17.53,0,0,0,381.72,61.14ZM388.25,421c0,9.29-7,16.81-15.55,16.81H219.26c-8.6,0-15.56-7.52-15.56-16.81V92.2c0-18.93,7-19.86,15.56-19.86H250c1.79,0,3.25,2,3.25,4.55V78c0,5.9,3.23,5.92,7.19,5.92h71.08c4,0,7.2,0,7.2-5.92V76.89c0-2.52,1.44-4.55,3.25-4.55H372.7c8.59,0,15.55,2.52,15.55,19.86Z" style="fill:#37474f"></path><path d="M305.67,76.53H286.28a1.2,1.2,0,0,1-1.2-1.2h0a1.2,1.2,0,0,1,1.2-1.2h19.39a1.2,1.2,0,0,1,1.2,1.2h0A1.2,1.2,0,0,1,305.67,76.53Z" style="fill:#263238"></path><path d="M388.25,92.2V421c0,9.29-7,16.81-15.54,16.81H219.26c-8.6,0-15.56-7.52-15.56-16.81V92.2c0-18.93,7-19.86,15.56-19.86H250c1.78,0,3.24,2,3.24,4.55V78c0,5.9,3.23,5.92,7.2,5.92h71.08c4,0,7.19,0,7.19-5.92V76.89c0-2.52,1.44-4.55,3.26-4.55h30.74C381.29,72.34,388.25,74.86,388.25,92.2Z" style="fill:#fff"></path><path d="M388.25,92.2v24.53H203.7V92.2c0-18.93,7-19.86,15.56-19.86H250c1.79,0,3.25,2,3.25,4.55V78c0,5.9,3.22,5.92,7.18,5.92h71.08c4,0,7.2,0,7.2-5.92V76.89c0-2.52,1.45-4.55,3.26-4.55H372.7C381.29,72.34,388.25,74.86,388.25,92.2Z" style="fill:#0050FF"></path><polygon points="222.38 104.75 216.93 99.64 222.38 94.54 223.22 95.44 218.74 99.64 223.22 103.85 222.38 104.75" style="fill:#fff"></polygon><path d="M374,96.46a1.08,1.08,0,1,1-1.07-1.07A1.08,1.08,0,0,1,374,96.46Z" style="fill:#fff"></path><path d="M374,100.28a1.08,1.08,0,1,1-1.07-1.08A1.07,1.07,0,0,1,374,100.28Z" style="fill:#fff"></path><path d="M374,104.09a1.08,1.08,0,1,1-1.07-1.07A1.07,1.07,0,0,1,374,104.09Z" style="fill:#fff"></path><g id="freepik--u5Zjqx--inject-2"><path d="M244.69,79.73a4,4,0,0,0-.29.29l-.17.17a4,4,0,0,0-5.73,0c-.05,0-.1-.11-.16-.16l-.29-.3h0l0,0,.38-.33a4.75,4.75,0,0,1,2-.94c.19,0,.38-.05.57-.08h.51l.39,0a4.25,4.25,0,0,1,1,.26,4.69,4.69,0,0,1,.72.33,4.63,4.63,0,0,1,.68.48l.31.28Z" style="fill:#fff"></path><path d="M239.44,81.12l-.47-.46a3.3,3.3,0,0,1,1.91-1,3.38,3.38,0,0,1,2.88,1l-.48.47a2.69,2.69,0,0,0-1.92-.79A2.73,2.73,0,0,0,239.44,81.12Z" style="fill:#fff"></path><path d="M242.82,81.59l-.47.47a1.39,1.39,0,0,0-2,0l-.46-.46A2,2,0,0,1,242.82,81.59Z" style="fill:#fff"></path><path d="M241.79,82.48a.43.43,0,0,1-.85,0,.43.43,0,0,1,.85,0Z" style="fill:#fff"></path></g><path d="M215.73,80.62A1.23,1.23,0,1,1,217,81.85,1.23,1.23,0,0,1,215.73,80.62Z" style="fill:#fff"></path><path d="M219.59,80.62a1.22,1.22,0,1,1,1.22,1.23A1.22,1.22,0,0,1,219.59,80.62Z" style="fill:#fff"></path><path d="M223.44,80.62a1.22,1.22,0,1,1,1.22,1.23A1.22,1.22,0,0,1,223.44,80.62Z" style="fill:#fff"></path><path d="M227.29,80.62a1.23,1.23,0,1,1,1.22,1.23A1.22,1.22,0,0,1,227.29,80.62Z" style="fill:#fff"></path><path d="M231.14,80.62a1.23,1.23,0,1,1,1.23,1.23A1.23,1.23,0,0,1,231.14,80.62Z" style="fill:#fff"></path><path d="M374.41,83.3h-10V78.67h10ZM365,82.78h8.93V79.2H365Z" style="fill:#fff"></path><rect x="365.27" y="79.47" width="6.42" height="3.05" style="fill:#fff"></rect><rect x="374.41" y="79.75" width="0.89" height="2.47" style="fill:#fff"></rect><path d="M375.88,424.88H216.07a1,1,0,1,0,0,2.05H375.88a1,1,0,1,0,0-2.05Z" style="fill:#c7c7c7"></path><path d="M216.07,424.88a1,1,0,1,0,0,2.05h104.2v-2.05Z" style="fill:#0050FF"></path><path d="M318.22,425.9a2,2,0,1,1,2,2.05A2.05,2.05,0,0,1,318.22,425.9Z" style="fill:#0050FF"></path></g><g id="freepik--character-2--inject-2"><path d="M219.82,145.75c.6,10.91,1,22.14,0,33-.83,8.47-4.39,15.45-13.2,17.53-8.17,1.93-19.81,1.78-26.73-3.64-3.21-2.52-4.34-6.09-4.12-10.08.29-5.55,4.7-36,6-45.44a113.58,113.58,0,0,1,3.38-17.21c2.87-9.64,9.63-11.5,10.4-11.85a15.55,15.55,0,0,1,11.46-.41,12.32,12.32,0,0,1,7.52,6.69C219.05,123.76,219.25,135.54,219.82,145.75Z" style="fill:#263238"></path><path d="M193.71,109.7c-7,3.26-8.63,10.87-10.32,17.69-2.35,9.49-4.53,19-6.26,28.65Q175.89,163,175,170c-.56,4.46-1.43,9.23-1.13,13.74.5,7.46,7.33,10.86,13.94,11.92a.25.25,0,0,0,.09-.5c-3.76-.75-7.61-1.79-10.41-4.59-3.6-3.58-3.18-8.26-2.75-12.91.72-7.93,1.89-15.81,3.35-23.64s3.2-15.61,5-23.36c1.77-7.37,3.06-17.08,10.62-20.83C193.82,109.78,193.78,109.67,193.71,109.7Z" style="fill:#263238"></path><path d="M217.71,122.33c-1.33-5.7-4.29-11.26-10.29-12.92,0,0,0,0,0,0,7.76,2.47,9.64,10.95,10.68,18q1.64,11.19,2.43,22.46c.52,7.23.88,14.51.74,21.76-.15,7.82-1.56,15.15-6.18,21.59-.1.14.08.3.19.17,4.55-5.21,6.06-12.4,6.42-19.12a203.43,203.43,0,0,0-.78-26.7C220.26,139.23,219.62,130.54,217.71,122.33Z" style="fill:#263238"></path><path d="M210.56,151.85c18.4,15.21,36,39.82,32.8,47.43-3.54,8.47-21.83,4-22.51,2.75-1.56-2.78-11.2-28-17.9-45.1C196.76,141.14,206,148.09,210.56,151.85Z" style="fill:#0050FF"></path><path d="M242.73,200.42c-4.66,6.89-21.23,2.76-21.88,1.61-1.56-2.77-11.19-28-17.9-45.1-3.68-9.4-1.9-10.74,1.11-9.5C214.59,161.7,235.4,190,242.73,200.42Z" style="opacity:0.1"></path><path d="M263.44,449.22c-2.35.12-63.68-17.09-65.6-19.23-.74-.8,15.67-60.63,15.67-60.63l37.29,10.35-9.42,40.48s20.53,17.09,22.39,19.66S265.78,449.11,263.44,449.22Z" style="fill:#f7a9a0"></path><path d="M263.44,449.21c-2.35.13-63.68-17.08-65.6-19.22-.24-.26,1.24-6.39,3.36-14.66,12.12,6.77,42.09,17.42,50.08,19.36,8.82,2.15-2.94-8.57-4.64-10.09,6.21,5.25,15.88,13.52,17.13,15.25C265.62,442.41,265.78,449.11,263.44,449.21Z" style="fill:#263238"></path><path d="M246,411.34l-43.7-7.66s16.09-92.05,15.71-93.92c-.49-2.39-41.55-108.44-41.55-108.44l38.88-.48s45.17,97.78,46.52,107.93C264,325.15,246,411.34,246,411.34Z" style="fill:#37474f"></path><path d="M246,402.45c-7-1.8-36.15-7.08-40.44-7.13-.08,0-.1.12,0,.14,3.06,1.08,28.18,5.77,40.44,7.19A.1.1,0,0,0,246,402.45Z" style="fill:#263238"></path><path d="M224.79,450c-2.23.74-65.93.35-68.35-1.21-.92-.57-1.41-9.86-1.67-21.09,0-.12,0-.24,0-.36-.06-2.31.77-41.16.77-41.16l41.64.13-1.31,40.82,0,.7s24.32,11,26.8,13S227,449.29,224.79,450Z" style="fill:#f7a9a0"></path><path d="M224.79,450c-2.23.73-65.93.35-68.35-1.21-.75-.48-1.22-6.85-1.51-15.37,8.28,4.21,48.51,7.78,57.95,7.62,9.76-.17-7.29-8.71-7.29-8.71h0c7.06,3.3,15.61,7.4,17,8.53C225.1,442.88,227,449.29,224.79,450Z" style="fill:#263238"></path><path d="M215.31,200.79s0,18.57-4.09,33.36c-.33,1.22-.69,2.42-1.07,3.58,0,0-1.68,0-8.41,4.24L198.3,420.23l-45.88.08s6.16-94.53,6-100.58c-.21-9.72,4.32-75.64,3.74-77.3-5.9-16.94,3.23-41.06,3.23-41.06Z" style="fill:#37474f"></path><path d="M196.62,411.76c-12.93-.61-38-.5-41.17,0a.07.07,0,0,0,0,.14c3.2.53,33.62.74,41.17,0A.11.11,0,0,0,196.62,411.76Z" style="fill:#263238"></path><path d="M199.17,364.28c-.25,11.53-.46,23.06-.8,34.58a.13.13,0,1,1-.25,0c-.14-20.54.14-41.09.44-61.62s.75-40.87,1.33-61.3c.33-11.52,1.23-22.14,1.75-33.66a.32.32,0,0,1,.63,0c-.25,20.54-1.35,40.17-1.77,60.7" style="fill:#263238"></path><path d="M163.05,366.21q1.2-20.11,2.48-40.22t2.5-40.22c.41-6.7.81-13.41,1.25-20.11l.66-10.05a87.28,87.28,0,0,0,.48-10c-.17-3.63-1.74-6.83-2.63-10.29a40.26,40.26,0,0,1-1.16-10.08c0-7,1.13-13,3.17-20.53.1-.37.34-.41.26,0a99.82,99.82,0,0,0-2.86,19.07,41.07,41.07,0,0,0,.78,9.58c.64,3,1.94,5.83,2.69,8.81s.4,6.28.2,9.41c-.22,3.35-.4,6.71-.6,10.06-.39,6.57-.81,13.14-1.22,19.71-1.65,26.68-3.27,53.36-5,80-1,15-1.79,30.05-3.07,45,0,.11-.18.11-.17,0C161.32,393,162.26,379.61,163.05,366.21Z" style="fill:#263238"></path><path d="M172.44,226.26c.77-.31,4.09-1.18,4.88-1.54a19,19,0,0,0,4.23-2.62,9.93,9.93,0,0,0,2.71-4c.33-.83,1.93-5.3,2-5.32a.1.1,0,0,1,.11.05,8.21,8.21,0,0,1-.46,2.47c-.24,1-.47,1.91-.75,2.86a9.64,9.64,0,0,1-2.72,4.66,15.15,15.15,0,0,1-4.71,2.78,16.11,16.11,0,0,1-2.71.78,7.25,7.25,0,0,1-2.62.19C172.29,226.49,172.33,226.3,172.44,226.26Z" style="fill:#263238"></path><path d="M207.68,231.34c.09-1.6.19-3.21.32-4.81.27-3.66.61-7.33,1.2-10.95.05-.29.45-.18.43.09-.21,2.84-.5,5.68-.73,8.52s-.54,5.67-.55,8.49c0,.85.07,2.29,1.11,2.52,1.41.29,2-1.56,2.38-2.57a46.71,46.71,0,0,0,1.66-7.75c.43-3,.64-6,.89-9,0-.11.18-.09.19,0,.09,6,.08,12.18-2.07,17.83a3.3,3.3,0,0,1-2.44,2.38H210a.3.3,0,0,1,0,.1c0,.17-.07.33-.09.5s-.05.28-.08.42-.1.58-.17.87a.22.22,0,0,1-.43-.05.17.17,0,0,1-.12-.17,4.7,4.7,0,0,1,.36-1.69,2.09,2.09,0,0,1-1.55-1.27A7.54,7.54,0,0,1,207.68,231.34Z" style="fill:#263238"></path><path d="M212,236.6a85.14,85.14,0,0,0-13,7,.15.15,0,1,0,.14.26c4.39-2.2,8.89-4.33,13.16-6.77A.3.3,0,0,0,212,236.6Z" style="fill:#263238"></path><path d="M165.42,201.37l49.89-.53.52-14.53s4.22-5.74,3.87-12.07c-.36-6.74-13.37-24.33-14.41-25.31-4.2-4-11.06-4.21-14.41-1.37C173,162.77,165.42,201.37,165.42,201.37Z" style="fill:#fff"></path><path d="M198.86,182.5a47.76,47.76,0,0,1,7.9.72c1.3.26,2.58.58,3.86.93.65.17,1.29.32,1.93.47a7.44,7.44,0,0,0,2,.24.06.06,0,0,1,0,.11,12.45,12.45,0,0,1-1.93.15,13.24,13.24,0,0,1-1.87-.22c-1.32-.25-2.63-.56-4-.81-2.66-.52-5.32-1-8-1.34C198.73,182.74,198.74,182.5,198.86,182.5Z" style="fill:#263238"></path><path d="M192.68,185.82a50.11,50.11,0,0,1,6.44-1c1.08-.09,2.16-.1,3.25-.09l1.56.05c.57,0,1.15.15,1.72.17.06,0,.07.11,0,.11-.54,0-1.08.1-1.62.14l-1.62.11-3.24.23c-2.17.12-4.32.27-6.48.49C192.58,186,192.57,185.84,192.68,185.82Z" style="fill:#263238"></path><path d="M203.1,147.32s11.22,20.26,12.47,27.31c1,5.76-1.14,29.67-.93,33.05s8.08,27.13,9.9,28.31,10.32,3.31,10.32,3.31-16.78-35.69-17-36.4-1.53-16.39-1.53-16.39,4.45-6.32,3.55-13c-1.16-8.53-13.09-23.33-14.76-24.93A5.7,5.7,0,0,0,203.1,147.32Z" style="fill:#0050FF"></path><path d="M191.57,146.93s5.54,24.54,5.15,28.75-4.75,56.2-5.27,58.95-37,20-37,20,5.32-33.41,9.93-52.64C165.51,197.17,178.64,152.54,191.57,146.93Z" style="fill:#0050FF"></path><path d="M192.82,149.23c.43,1,6.53,6.53,11.08,5.4,1.48-.37-.18-8.55-.18-8.55v-.63l.21-8.84-11.21-4.4-1.61-.56s.11,2.43.27,5.44c0,.14,0,.28,0,.43a3.93,3.93,0,0,0,0,.49c0,.45,0,.91.06,1.37s0,.69.08,1.05.06.73.08,1.09A56.82,56.82,0,0,0,192.82,149.23Z" style="fill:#f7a9a0"></path><path d="M203.94,136.61l-.18,7.57c-4.6,2.12-9.57,1.14-11.74.52-.14-1-.26-2.1-.36-3.17,0-.37-.07-.73-.09-1.1s-.06-.7-.08-1.05-.05-.92-.07-1.37c0-.15,0-.32,0-.49s0-.29,0-.43c-.16-3-.27-5.43-.27-5.43l1.61.56Z" style="fill:#263238"></path><path d="M181.13,126.13c-1.64,15.43,7.42,18.15,10.75,18.5,3,.32,13.34,1,16.57-14.16s-3.44-20.82-10.31-21.91S182.77,110.7,181.13,126.13Z" style="fill:#f7a9a0"></path><path d="M185.79,123.4a9.76,9.76,0,0,0,1.08-.05,1.72,1.72,0,0,0,1.09-.25.56.56,0,0,0,.12-.67,1.4,1.4,0,0,0-1.3-.55,2,2,0,0,0-1.37.5A.59.59,0,0,0,185.79,123.4Z" style="fill:#263238"></path><path d="M196.62,124.33a9.49,9.49,0,0,1-1-.33,1.75,1.75,0,0,1-1-.53.57.57,0,0,1,.07-.68,1.39,1.39,0,0,1,1.39-.18,2.06,2.06,0,0,1,1.2.84A.59.59,0,0,1,196.62,124.33Z" style="fill:#263238"></path><path d="M194.05,127.12s.08.07.07.11c-.2,1-.26,2.28.64,2.78,0,0,0,.07,0,.06C193.61,129.72,193.69,128.08,194.05,127.12Z" style="fill:#263238"></path><path d="M195.17,126.17c1.71.14,1.31,3.56-.28,3.43S193.73,126.05,195.17,126.17Z" style="fill:#263238"></path><path d="M195.82,126.43c.27.23.53.61.88.68s.77-.23,1.09-.54c0,0,.05,0,.05.05-.07.65-.4,1.3-1.11,1.31s-1-.62-1.13-1.3C195.58,126.51,195.71,126.34,195.82,126.43Z" style="fill:#263238"></path><path d="M187.83,126.17s-.09,0-.09.09c-.05,1.07-.29,2.28-1.28,2.56,0,0,0,.06,0,.06C187.65,128.81,188,127.19,187.83,126.17Z" style="fill:#263238"></path><path d="M187,125c-1.71-.27-2.11,3.16-.53,3.4S188.39,125.21,187,125Z" style="fill:#263238"></path><path d="M186.22,125.13c-.29.15-.59.45-.92.43s-.61-.42-.81-.81c0,0-.05,0-.05,0-.1.66,0,1.36.65,1.56s1-.33,1.28-1C186.41,125.26,186.34,125.07,186.22,125.13Z" style="fill:#263238"></path><path d="M192.65,136c-.27.24-.53.57-.92.59a2.87,2.87,0,0,1-1.14-.32,0,0,0,0,0-.05.06,1.44,1.44,0,0,0,1.33.63,1.12,1.12,0,0,0,.88-.91C192.77,136,192.69,136,192.65,136Z" style="fill:#263238"></path><path d="M188.59,131.73a23.32,23.32,0,0,0-.45,2.31c0,.07.17.12.42.16,0,0,0,0,0,0a3.57,3.57,0,0,0,3.59-1,.08.08,0,0,0-.1-.12,5.44,5.44,0,0,1-3.35.62c0-.22.74-2.66.62-2.68a6.5,6.5,0,0,0-1.74.21c.69-3.28,1.9-6.43,2.53-9.71a.1.1,0,0,0-.19-.07,54.45,54.45,0,0,0-3.17,10.35C186.68,132.24,188.27,131.83,188.59,131.73Z" style="fill:#263238"></path><path d="M207.59,130.07c-2.52,0-2.75-5.26-2.75-5.26s-5.1-.32-6.31-7.75a11.31,11.31,0,0,0,1.86,6.2s-8.92-1.53-12.22-9.29c0,0,1.26,3.93,2.59,5.38a10.53,10.53,0,0,1-5.34-4.47s-1.85,4.24-3.14,5.36c0,0,1.38-15.7,15.84-13.09,0,0,9.08,1.19,11.89,8.62S207.59,130.07,207.59,130.07Z" style="fill:#263238"></path><path d="M205,130.34s3.48-4.78,5.65-3.53-.5,8.22-3.1,9.13a2.62,2.62,0,0,1-3.49-1.47Z" style="fill:#f7a9a0"></path><path d="M209.79,128.79a0,0,0,0,1,0,.07c-1.83.7-2.81,2.36-3.51,4.08a1.45,1.45,0,0,1,2.17-.35c.05,0,0,.11-.05.1a1.58,1.58,0,0,0-1.78.53,6.88,6.88,0,0,0-.88,1.42c-.09.16-.38.06-.32-.12l0,0C205.46,132.17,207.31,129,209.79,128.79Z" style="fill:#263238"></path><path d="M190.16,160.19c-2.76,7.47-11.93,35-12.11,36.56s-2.49,31.77-2.31,36.52c.12,3.35-24.44-1.54-24.38-4.47.14-6.84,1.68-26.3,3.89-34.71,1.81-6.87,21.43-35.54,27.5-41.7S194.69,147.91,190.16,160.19Z" style="fill:#f7a9a0"></path><path d="M171.66,244.09c.64-1.44,1.4-1.11,2.08,1.61s1.08,14.07,5,13.59,3.16-16.47,1.67-20.92S175,227.26,175,227.26C174.53,230.41,172.66,237.93,171.66,244.09Z" style="fill:#f7a9a0"></path><path d="M148,310.12l41.63,1.8c11.26.48,9.74-8.17,7.35-17.29s-5.94-22.94-16-23.37l-10.81-.47-10.82-.46c-10.05-.44-14.51,13-17.52,21.92S136.74,309.64,148,310.12Z" style="fill:#0050FF"></path><path d="M182.59,271.35a.42.42,0,0,1,.42.43.42.42,0,0,1-.45.39.42.42,0,0,1-.41-.43A.42.42,0,0,1,182.59,271.35Zm-7.54.09a.42.42,0,0,0,.42.42.4.4,0,0,0,.44-.39.42.42,0,0,0-.41-.42A.41.41,0,0,0,175.05,271.44Zm-7.1-.31a.43.43,0,0,0,.42.43.42.42,0,0,0,.45-.39.43.43,0,0,0-.42-.43A.42.42,0,0,0,168,271.13Zm-7.09-.31a.42.42,0,0,0,.41.43.42.42,0,0,0,.45-.39.42.42,0,0,0-.42-.43A.42.42,0,0,0,160.86,270.82ZM189,280.74a.42.42,0,0,0,.42.43.41.41,0,0,0,.44-.39.43.43,0,0,0-.86,0Zm-7.09-.3a.41.41,0,0,0,.41.42.42.42,0,0,0,.45-.39.44.44,0,0,0-.42-.43A.41.41,0,0,0,181.86,280.44Zm-7.1-.31a.43.43,0,1,0,.44-.39A.41.41,0,0,0,174.76,280.13Zm-7.1-.31a.42.42,0,0,0,.42.43.41.41,0,0,0,.44-.39.43.43,0,0,0-.86,0Zm-7.1-.3a.44.44,0,0,0,.42.43.41.41,0,1,0,0-.82A.42.42,0,0,0,160.56,279.52Zm-7.09-.31a.43.43,0,1,0,.44-.39A.41.41,0,0,0,153.47,279.21Zm32.08-3.08a.43.43,0,0,0,.42.43.4.4,0,0,0,.44-.39.42.42,0,0,0-.41-.43A.42.42,0,0,0,185.55,276.13Zm-7.09-.3a.43.43,0,0,0,.86,0,.44.44,0,0,0-.42-.43A.41.41,0,0,0,178.46,275.83Zm-7.1-.31a.43.43,0,1,0,.44-.39A.42.42,0,0,0,171.36,275.52Zm-7.1-.31a.43.43,0,0,0,.42.43.4.4,0,0,0,.44-.39.43.43,0,0,0-.86,0Zm-7.09-.3a.42.42,0,0,0,.41.42.41.41,0,0,0,.45-.39.43.43,0,0,0-.42-.42A.4.4,0,0,0,157.17,274.91Zm-7-.1a.47.47,0,0,0,.37.22.42.42,0,0,0,.44-.39.45.45,0,0,0-.28-.41Zm38.54,14.63a.43.43,0,0,0,.86,0,.43.43,0,0,0-.42-.43A.42.42,0,0,0,188.66,289.44Zm-7.1-.31a.42.42,0,0,0,.42.43.42.42,0,0,0,.44-.39.42.42,0,0,0-.41-.43A.42.42,0,0,0,181.56,289.13Zm-7.1-.31a.43.43,0,0,0,.42.43.4.4,0,0,0,.44-.39.42.42,0,0,0-.41-.43A.42.42,0,0,0,174.46,288.82Zm-7.09-.3a.44.44,0,0,0,.41.43.41.41,0,1,0,0-.82A.41.41,0,0,0,167.37,288.52Zm-7.1-.31a.43.43,0,1,0,.44-.39A.42.42,0,0,0,160.27,288.21Zm-7.1-.31a.43.43,0,0,0,.42.43.4.4,0,0,0,.44-.39.42.42,0,0,0-.41-.43A.42.42,0,0,0,153.17,287.9Zm-7.09-.3a.43.43,0,1,0,.44-.39A.4.4,0,0,0,146.08,287.6Zm46.28-2.47a.43.43,0,1,0,.44-.39A.4.4,0,0,0,192.36,285.13Zm-7.1-.31a.42.42,0,0,0,.42.43.42.42,0,0,0,.44-.39.43.43,0,0,0-.42-.43A.42.42,0,0,0,185.26,284.82Zm-7.1-.3a.44.44,0,0,0,.42.43.41.41,0,0,0,.44-.39.43.43,0,0,0-.86,0Zm-7.09-.31a.42.42,0,0,0,.41.43.42.42,0,0,0,.45-.39.43.43,0,0,0-.42-.43A.41.41,0,0,0,171.07,284.21Zm-7.1-.3a.42.42,0,0,0,.42.42.42.42,0,0,0,.44-.39.43.43,0,0,0-.42-.43A.42.42,0,0,0,164,283.91Zm-7.1-.31a.43.43,0,0,0,.42.43.41.41,0,0,0,.44-.39.42.42,0,0,0-.41-.43A.42.42,0,0,0,156.87,283.6Zm-7.09-.31a.43.43,0,0,0,.86,0,.43.43,0,0,0-.42-.43A.41.41,0,0,0,149.78,283.29Zm45.68,15.14a.42.42,0,0,0,.42.43.41.41,0,0,0,.44-.39.43.43,0,0,0-.86,0Zm-7.09-.3a.43.43,0,0,0,.86,0,.43.43,0,0,0-.42-.43A.4.4,0,0,0,188.37,298.13Zm-7.1-.31a.42.42,0,0,0,.41.43.42.42,0,0,0,.45-.39.42.42,0,0,0-.42-.43A.42.42,0,0,0,181.27,297.82Zm-7.1-.3a.42.42,0,0,0,.42.42.42.42,0,0,0,.44-.39.44.44,0,0,0-.41-.43A.43.43,0,0,0,174.17,297.52Zm-7.1-.31a.43.43,0,0,0,.42.43.41.41,0,0,0,.44-.39.43.43,0,0,0-.86,0ZM160,296.9a.42.42,0,0,0,.41.43.42.42,0,0,0,.45-.39.42.42,0,0,0-.42-.43A.41.41,0,0,0,160,296.9Zm-7.1-.3a.43.43,0,0,0,.42.43.41.41,0,1,0,0-.82A.42.42,0,0,0,152.88,296.6Zm-7.1-.31a.43.43,0,0,0,.42.43.41.41,0,0,0,.44-.39.43.43,0,0,0-.86,0Zm46.28-2.47a.43.43,0,0,0,.42.43.4.4,0,0,0,.44-.39.42.42,0,0,0-.41-.43A.42.42,0,0,0,192.06,293.82Zm-7.09-.3a.43.43,0,1,0,.44-.39A.4.4,0,0,0,185,293.52Zm-7.1-.31a.42.42,0,0,0,.42.43.42.42,0,0,0,.44-.39.43.43,0,0,0-.86,0Zm-7.1-.3a.43.43,0,0,0,.42.42.4.4,0,0,0,.44-.39.43.43,0,0,0-.86,0Zm-7.09-.31a.43.43,0,0,0,.86,0,.43.43,0,0,0-.42-.43A.4.4,0,0,0,163.68,292.6Zm-7.1-.31a.42.42,0,0,0,.42.43.42.42,0,0,0,.44-.39.43.43,0,0,0-.86,0Zm-7.1-.3a.44.44,0,0,0,.42.43.41.41,0,0,0,.44-.4.43.43,0,0,0-.86,0Zm-7.09-.31a.42.42,0,0,0,.41.43.42.42,0,0,0,.45-.39.43.43,0,0,0-.42-.43A.4.4,0,0,0,142.39,291.68Zm52.78,15.45a.43.43,0,0,0,.86,0,.42.42,0,0,0-.42-.43A.41.41,0,0,0,195.17,307.13Zm-7.1-.31a.42.42,0,0,0,.42.43.41.41,0,0,0,.44-.39.43.43,0,0,0-.86,0Zm-7.1-.3a.43.43,0,0,0,.42.42.4.4,0,0,0,.44-.39.43.43,0,0,0-.86,0Zm-7.09-.31a.43.43,0,1,0,.44-.39A.41.41,0,0,0,173.88,306.21Zm-7.1-.31a.42.42,0,0,0,.42.43.42.42,0,0,0,.44-.39.43.43,0,0,0-.86,0Zm-7.1-.3a.44.44,0,0,0,.42.43.41.41,0,1,0,0-.82A.42.42,0,0,0,159.68,305.6Zm-7.09-.31a.43.43,0,1,0,.44-.39A.4.4,0,0,0,152.59,305.29Zm-7.1-.31a.42.42,0,0,0,.42.43.42.42,0,0,0,.44-.39.43.43,0,0,0-.42-.43A.42.42,0,0,0,145.49,305Zm46.28-2.46a.43.43,0,0,0,.42.43.41.41,0,1,0,0-.82A.42.42,0,0,0,191.77,302.52Zm-7.1-.31a.43.43,0,0,0,.42.43.41.41,0,0,0,.44-.39.42.42,0,0,0-.41-.43A.42.42,0,0,0,184.67,302.21Zm-7.09-.31a.42.42,0,0,0,.41.43.42.42,0,0,0,.45-.39.44.44,0,0,0-.42-.43A.41.41,0,0,0,177.58,301.9Zm-7.1-.3a.43.43,0,1,0,.44-.39A.42.42,0,0,0,170.48,301.6Zm-7.1-.31a.43.43,0,0,0,.42.43.4.4,0,0,0,.44-.39.43.43,0,0,0-.86,0Zm-7.09-.3a.41.41,0,0,0,.41.42.42.42,0,0,0,.45-.39.44.44,0,0,0-.42-.43A.41.41,0,0,0,156.29,301Zm-7.1-.31a.43.43,0,1,0,.44-.39A.42.42,0,0,0,149.19,300.68Zm-7.1-.31a.42.42,0,0,0,.42.43.41.41,0,0,0,.44-.39.43.43,0,0,0-.86,0Zm49.39,10.84a.43.43,0,1,0,.44-.39A.4.4,0,0,0,191.48,311.21Zm-7.1-.31a.42.42,0,0,0,.42.43.42.42,0,0,0,.44-.39.43.43,0,0,0-.42-.43A.42.42,0,0,0,184.38,310.9Zm-7.1-.3a.44.44,0,0,0,.42.43.41.41,0,0,0,.44-.39.42.42,0,0,0-.41-.43A.42.42,0,0,0,177.28,310.6Zm-7.09-.31a.42.42,0,0,0,.41.43.42.42,0,0,0,.45-.39.43.43,0,0,0-.42-.43A.41.41,0,0,0,170.19,310.29Zm-7.1-.3a.42.42,0,0,0,.42.42A.42.42,0,0,0,164,310a.43.43,0,0,0-.42-.43A.42.42,0,0,0,163.09,310Zm-7.1-.31a.42.42,0,0,0,.42.43.41.41,0,0,0,.44-.39.42.42,0,0,0-.41-.43A.42.42,0,0,0,156,309.68Zm-7.09-.31a.43.43,0,0,0,.86,0,.43.43,0,0,0-.42-.43A.41.41,0,0,0,148.9,309.37Zm-6.57-.68a1,1,0,0,0,.23.13A.48.48,0,0,0,142.33,308.69Z" style="fill:#fff"></path><path d="M178.07,275.88a3.41,3.41,0,0,0,3.34,3.43,3.33,3.33,0,0,0,3.56-3.14,3.41,3.41,0,0,0-3.34-3.43A3.33,3.33,0,0,0,178.07,275.88Z" style="opacity:0.1"></path><path d="M155.06,274.88a3.41,3.41,0,0,0,3.34,3.44,3.34,3.34,0,0,0,3.56-3.14,3.42,3.42,0,0,0-3.34-3.44A3.34,3.34,0,0,0,155.06,274.88Z" style="opacity:0.1"></path><path d="M179.18,275.92a2.31,2.31,0,0,0,2.27,2.33,2.25,2.25,0,0,0,2.41-2.13,2.3,2.3,0,0,0-2.26-2.32A2.26,2.26,0,0,0,179.18,275.92Z" style="fill:#263238"></path><path d="M156.17,274.93a2.32,2.32,0,0,0,2.26,2.33,2.27,2.27,0,0,0,2.42-2.13,2.32,2.32,0,0,0-2.27-2.33A2.26,2.26,0,0,0,156.17,274.93Z" style="fill:#263238"></path><path d="M183,276.29l-3-.53c2.14-11.93-.9-19.24-4.15-21.88a5.05,5.05,0,0,0-5.32-.91c-4.92,2-8.75,10.42-10.23,22.55l-3-.36c1.63-13.43,6-22.53,12.08-25a8,8,0,0,1,8.33,1.36C181.85,254.85,185.36,263.09,183,276.29Z" style="fill:#263238"></path><path d="M151.6,226.36c-1,8.9-2.79,19.93,1.33,29.17a5,5,0,0,0,2.18,2.45c1.78,4.17,4.28,4.58,4.28,4.58,2.84,3.38,5.46,3.46,5.46,3.46s2.14,4.87,5.3,4.07c3.55-.89-.15-7.56.06-12.48.49-11.25,4.33-27.11,4.79-30.35Z" style="fill:#f7a9a0"></path><path d="M162.43,245.46a72.39,72.39,0,0,0,.14,9.88,73.6,73.6,0,0,0,2.34,10.57.09.09,0,0,1-.17,0,38.41,38.41,0,0,1-2.46-20.5C162.31,245.3,162.44,245.3,162.43,245.46Z" style="fill:#263238"></path><path d="M155.68,244.18c.11,3.23.33,8.91,3.81,18.35,0,0,0,.06-.05,0a34.36,34.36,0,0,1-3.91-18.37C155.54,244,155.68,244,155.68,244.18Z" style="fill:#263238"></path><path d="M152,243.56c.39,5.49,1.33,8.9,3.09,14.39a0,0,0,0,1-.06,0c-2.66-6-2.94-8.52-3.22-14.42C151.84,243.35,152,243.35,152,243.56Z" style="fill:#263238"></path><path d="M150.56,222l26.5,8.7s1-33.14,1.84-34.91,11.71-33.39,13.58-40.06-2-12-12.11-1.34-21.59,31.25-24.85,36.71C152.89,195.47,150.56,222,150.56,222Z" style="fill:#0050FF"></path><path d="M190.12,165.54c-.54.8-1,1.64-1.48,2.49l-.2.37c.41-1.26.79-2.52,1.1-3.79,0-.11-.13-.14-.17-.05-1,2.22-1.66,4.58-2.45,6.87s-1.67,4.47-2.46,6.73c-1.58,4.51-3,9.08-4.51,13.63a30.78,30.78,0,0,0-1.6,6.19c-.25,2.31-.32,4.64-.44,7q-.36,7.16-.7,14.33c-.13,2.72-.26,5.46-.3,8.18a15.7,15.7,0,0,0,.1,3.28c.22.36.52-1.55.53-1.72.05-.61.12-1.21.16-1.82.09-1.09.16-2.19.24-3.28.15-2.23.28-4.46.41-6.7q.38-6.66.74-13.32c.11-2.1.12-4.22.37-6.31a29.24,29.24,0,0,1,1.54-6c1.42-4.23,2.84-8.46,4.22-12.7.77-2.35,1.38-4.76,2.13-7.13.18-.55.36-1.11.55-1.67.36-.59.71-1.2,1-1.81.46-.87.9-1.75,1.28-2.65A.06.06,0,0,0,190.12,165.54Z" style="fill:#263238"></path><path d="M242.05,195.26c1.2,4.25-.52,14.3-7.81,26.06-1.88,3-25.46-9.95-23.2-13a93.45,93.45,0,0,1,8.26-9.75C227.14,192,240.85,191,242.05,195.26Z" style="fill:#f7a9a0"></path><path d="M196.8,230a3.85,3.85,0,0,0,4.1,1.59,5.74,5.74,0,0,0,1.31,3.66c1.59,1.74,5,0,5,0a7,7,0,0,0,2,3.64c1.68,1.51,5.39.26,5.39.26a6.18,6.18,0,0,0,3.77,2.1c4,.43,7.7-4.33,10.12-7.33S235,220.1,236,218.13l-20-14.51s-13.85,9.2-16.19,13.13C197.83,220.07,195.21,227.39,196.8,230Z" style="fill:#f7a9a0"></path><path d="M200.7,231.16c1.25-4,3.63-7.46,5.8-11,.05-.08.17,0,.12.08-2.2,3.52-3.68,7.43-5.74,11C200.83,231.34,200.67,231.27,200.7,231.16Z" style="fill:#263238"></path><path d="M207,235a10.66,10.66,0,0,1,1.45-2.48c.57-.84,1.16-1.67,1.76-2.5,1.2-1.64,2.44-3.26,3.73-4.84.05-.07.18,0,.12.07-1.2,1.65-2.37,3.31-3.49,5-.56.85-1.12,1.7-1.67,2.55a13,13,0,0,1-1.67,2.35A.14.14,0,0,1,207,235Z" style="fill:#263238"></path><path d="M214.67,239.05a7.42,7.42,0,0,1,1.42-2.16l1.68-2.23c1.11-1.49,2.22-3,3.28-4.51,0-.07.17,0,.12.08-1.07,1.56-2.11,3.13-3.19,4.68-.53.76-1.07,1.52-1.61,2.27a7.24,7.24,0,0,1-1.63,1.93A0,0,0,0,1,214.67,239.05Z" style="fill:#263238"></path><path d="M210.68,206.12l25.78,18.11s10.64-22.8,6-29.66-14.12-6.19-21.85.67A106.42,106.42,0,0,0,210.68,206.12Z" style="fill:#0050FF"></path><path d="M215.83,202.34c1.93,1,3.75,2.28,5.58,3.45s3.76,2.52,5.63,3.8,9.17,6.63,11,8c.08.06,0,.19-.09.13-1.91-1.22-9.46-6.08-11.29-7.34s-3.66-2.51-5.46-3.83a67.4,67.4,0,0,1-5.41-4.1S215.77,202.31,215.83,202.34Z" style="fill:#263238"></path><path d="M214.79,201.24c.89-1.12,1.85-2.16,2.84-3.18s2-2,3.06-2.94,2.13-1.87,3.26-2.73a39.62,39.62,0,0,1,3.47-2.46c-1,1-2.06,1.94-3.1,2.9l-3.13,2.84L218,198.48C217,199.41,215.9,200.34,214.79,201.24Z" style="fill:#263238"></path></g><g id="freepik--character-1--inject-2"><rect x="71.91" y="229.05" width="74.79" height="15.49" style="fill:#c7c7c7"></rect><polygon points="91.98 244.41 89.89 264.21 64.03 449.51 56.63 449.51 77.04 264.21 78.7 244.41 91.98 244.41" style="fill:#c7c7c7"></polygon><polygon points="161.99 449.51 154.58 449.51 128.73 264.21 126.63 244.41 139.91 244.41 141.57 264.21 161.99 449.51" style="fill:#c7c7c7"></polygon><rect x="67" y="384.33" width="82.5" height="4.65" style="fill:#c7c7c7"></rect><polygon points="77.04 263.51 89.89 263.51 91.98 244.41 78.7 244.41 77.04 263.51" style="fill:#a6a6a6"></polygon><polygon points="141.57 263.51 128.73 263.51 126.63 244.41 139.91 244.41 141.57 263.51" style="fill:#a6a6a6"></polygon><path d="M129.74,350.44l-26,31c-5,5.9-9.28,11.16-11.24,14.09,0,0,0,0,0,0a5.35,5.35,0,0,0-1.11,2.2s0,0,0,.06c.75,2.68,46.73,44,48.82,44.93s4.83-5,4.32-8-11-26.74-11-26.74l25.69-31.22Z" style="fill:#ad6359"></path><path d="M109.07,375.09l-5.34,6.37c-5,5.9-9.28,11.16-11.24,14.09,0,0,0,0,0,0a10.09,10.09,0,0,0-1.11,2.2s0,0,0,.06c.75,2.68,46.73,44,48.82,44.93s4.83-5,4.32-8-11-26.74-11-26.74l5.5-6.38Z" style="fill:#ebebeb"></path><path d="M140.17,442.79c-2.09-.91-48.07-42.25-48.82-44.94-.3-1,5.33-8.07,12.38-16.39l.23-.26,30,26.34-.46.5s10.52,23.7,11,26.74S142.26,443.7,140.17,442.79Z" style="fill:#455a64"></path><polygon points="133.85 407.48 133.85 407.62 133.93 407.55 133.85 407.48" style="fill:#020100"></polygon><path d="M144.49,434.77c-.45-2.68-8.73-21.52-10.64-25.85v28.66a75.64,75.64,0,0,0,6.32,5.21C142.26,443.7,145,437.8,144.49,434.77Z" style="fill:#37474f"></path><path d="M141.26,440.54c-7.58-7.16-38.83-35.33-46.87-41.83-.07,0-.11,0,0,.05,7.35,7.26,38.83,35.17,46.79,41.9C141.31,440.81,141.42,440.69,141.26,440.54Z" style="fill:#263238"></path><path d="M135.87,410.37c-2.54-3.31-6.69-6.2-11-6.12-.16,0-.16.24,0,.29a58.14,58.14,0,0,1,10.65,6.2A.26.26,0,0,0,135.87,410.37Z" style="fill:#263238"></path><path d="M136.88,413.67c-2.54-3.31-6.69-6.19-11-6.12-.16,0-.16.24,0,.3a58.14,58.14,0,0,1,10.65,6.2A.27.27,0,0,0,136.88,413.67Z" style="fill:#263238"></path><path d="M137.89,417c-2.54-3.31-6.69-6.2-11-6.12-.17,0-.16.24,0,.3a57,57,0,0,1,10.65,6.2A.27.27,0,0,0,137.89,417Z" style="fill:#263238"></path><path d="M142.3,312.9c-2.23,11-40.14,67.25-40.14,67.25L135.84,411s55.24-71.12,51.86-95.44c-2.95-21.16-34.62-106.23-34.62-106.23H116.55S144.49,302.08,142.3,312.9Z" style="fill:#263238"></path><path d="M138.71,400.82c-4.88-4.67-3.42-3.4-8.35-8-2.42-2.26-18.3-17.08-20.92-18.78a.07.07,0,0,0-.1.1c1.93,2.46,18.07,17,20.53,19.21,5,4.52,3.63,3.16,8.71,7.62C138.67,401.05,138.8,400.91,138.71,400.82Z" style="fill:#455a64"></path><path d="M148.58,309.28c-.52-2.75-1.12-5.49-1.7-8.22q-1.78-8.38-3.77-16.72-3.95-16.53-8.58-32.88c-3.12-10.94-6.41-21.85-10.2-32.58q-.7-2-1.44-4a.08.08,0,0,0-.16.05c3.29,10.74,6.67,21.45,9.75,32.25s5.91,21.57,8.58,32.44c1.34,5.45,2.59,10.92,3.82,16.41q.9,4,1.75,8.08a58,58,0,0,1,1.54,8.34A12.73,12.73,0,0,1,146,320c-1.37,2.24-30.55,52.07-31.51,53-.07.07,0,.18.12.11,4-3.58,33.07-53.76,33.85-56.11A15.07,15.07,0,0,0,148.58,309.28Z" style="fill:#455a64"></path><path d="M133.8,388.56s7.89,38.4,7.89,38.43c.1,7.74.34,14.52.78,18a.13.13,0,0,0,0,.06,5.43,5.43,0,0,0,.6,2.38l0,.05c2.32,1.53,64.16,2.49,66.33,1.79s.36-6.92-2-8.87-25.89-12.91-25.89-12.91l-8.27-38.39Z" style="fill:#ad6359"></path><path d="M209.46,449.28c-2.17.69-64-.26-66.33-1.79l0-.05a5.43,5.43,0,0,1-.6-2.38.13.13,0,0,1,0-.06c-.45-3.49-.67-10.27-.78-18l-1.37-6.69H180l1.55,7.18s23.5,11,25.9,12.92S211.64,448.6,209.46,449.28Z" style="fill:#ebebeb"></path><path d="M209.46,449.28c-2.17.7-64-.26-66.33-1.79-.9-.57-1.28-9.59-1.44-20.5v-.34l39.9.17,0,.68s23.51,10.95,25.89,12.91S211.63,448.6,209.46,449.28Z" style="fill:#455a64"></path><path d="M208.8,446.88c-10.42-.42-52.49-1.12-62.82-.74-.08,0-.08.06,0,.06,10.32.64,52.39,1,62.81.85C209,447,209,446.89,208.8,446.88Z" style="fill:#263238"></path><path d="M184.91,427.67c-4.09-.83-9.11-.27-12.29,2.6-.13.11,0,.28.17.24a57.76,57.76,0,0,1,12.1-2.32A.26.26,0,0,0,184.91,427.67Z" style="fill:#263238"></path><path d="M187.85,429.5c-4.09-.83-9.12-.27-12.3,2.6-.12.11,0,.28.17.24a57.88,57.88,0,0,1,12.1-2.32A.26.26,0,0,0,187.85,429.5Z" style="fill:#263238"></path><path d="M190.78,431.33c-4.09-.83-9.12-.27-12.3,2.6-.12.11,0,.28.17.24a57.88,57.88,0,0,1,12.1-2.32A.26.26,0,0,0,190.78,431.33Z" style="fill:#263238"></path><path d="M152.27,209.31a148.51,148.51,0,0,0-3.14,18.23c-.76,7.65-1.72,14.42-2.74,15.26s-6.93,4.66-8.87,5.84c0,0,18,54.58,22.65,72.77C166.9,347.79,183,426.91,183,426.91h-43S127,351.58,121.27,326.47c-4.9-21.53-23.66-86.11-23.66-86.11a37.47,37.47,0,0,1,1.52-31.05S152.27,209.28,152.27,209.31Z" style="fill:#263238"></path><path d="M181.48,418.55c-6.75,0-4.81-.12-11.57-.08-3.3,0-25,.16-28.11.72-.06,0-.06.13,0,.14,3.09.46,24.81-.06,28.11-.15,6.76-.17,4.82-.19,11.57-.44A.1.1,0,0,0,181.48,418.55Z" style="fill:#455a64"></path><path d="M149.44,240.64a82,82,0,0,0-11.86,7.94c-.15.11,0,.35.16.24,4-2.51,8.13-5,12-7.7A.29.29,0,0,0,149.44,240.64Z" style="fill:#455a64"></path><path d="M146.16,211c0-.15-.31-.14-.28,0a144.55,144.55,0,0,1,1.51,14.5c.15,2.25.26,14.78-3.72,14.48-.67,0-1.09-.63-1.35-1.58a15.88,15.88,0,0,1-.07-3.84c0-2.63,0-5.26-.21-7.89a70.91,70.91,0,0,0-2.41-14.47.12.12,0,1,0-.24.05,134.24,134.24,0,0,1,1.93,20.2c0,3.26-.84,8.31,2.57,8.28s4.42-8.4,4.49-10.67A74.41,74.41,0,0,0,146.16,211Z" style="fill:#455a64"></path><path d="M143.82,240.27a22.28,22.28,0,0,0-.47,2.67,5.76,5.76,0,0,0,0,2.15c0,.13.21.12.27,0a7.26,7.26,0,0,0,.58-2.17c.17-.83.36-1.66.51-2.49A.44.44,0,0,0,143.82,240.27Z" style="fill:#455a64"></path><path d="M136.92,406.19c-.12-1-.25-2.06-.39-3.08-.27-2-.59-3.94-.88-5.9-.59-3.95-1.25-7.89-1.92-11.82-1.35-7.85-2.91-15.67-4.55-23.46-.93-4.4-2-8.75-3.15-13.1-.08-.3-.49-.16-.44.14.69,4,1.36,8,2.15,11.92s1.57,7.9,2.32,11.86c1.51,7.81,2.91,15.65,4.4,23.47.42,2.21.81,4.42,1.22,6.63q.31,1.65.66,3.3c.22,1.1.55,2.17.73,3.28,0,.1.17.05.15-.05C137.05,408.32,137,407.25,136.92,406.19Z" style="fill:#455a64"></path><path d="M164.69,337.76c-1.43-7.13-3.36-14.17-5.3-21.18-3.9-14.1-8.5-28-13.09-41.9l-4-12c-.67-2-3.91-12.79-4.31-13.82a.09.09,0,0,0-.17.05c.93,3.68,2.21,9,3.28,12.68s2.22,7.17,3.33,10.75c2.2,7,4.43,14.06,6.57,21.12,4.21,13.94,8.39,27.88,11.81,42.05,1,4,1.92,7.93,2.79,11.92s3.47,13.85,4.31,17.84c0,.11.2.08.19,0C169.42,358,166.13,344.91,164.69,337.76Z" style="fill:#455a64"></path><path d="M138,375.06c-2.36-13.6-5.2-27.13-8.34-40.58s-6.66-26.94-10.54-40.27-8.16-26.53-12.76-39.62a164.08,164.08,0,0,1-5.84-18.84c-1.42-6.36-2.14-13.24-.66-19.65a32.88,32.88,0,0,1,1.47-4.77c0-.11-.11-.2-.16-.09-5.17,12-1.81,25.22,2.12,37.09,2.16,6.51,4.46,13,6.59,19.48q3.27,10,6.27,20.16c4,13.36,7.65,26.81,10.95,40.36s6.24,27.17,8.82,40.87,4.78,27.55,7,41.37c.29,1.79.52,3.6.75,5.4,0,.1.17.1.16,0C142.13,402.28,140.34,388.65,138,375.06Z" style="fill:#455a64"></path><path d="M138.35,144.45c18,17.61,23.18,22.81,27,32.16,5.35,12.95-1.14,16.63-5,16.71-10.41.22-24-26-29.91-42C125.27,137.18,134.15,140.34,138.35,144.45Z" style="fill:#37474f"></path><path d="M162.94,192.79a7.3,7.3,0,0,1-2.51.53c-10.4.22-24-26-29.92-42-2.08-5.6-1.93-8.48-.74-9.66,1.81-1.79,6,.35,8.58,2.82,18,17.62,23.18,22.82,27,32.16C169.66,187,166.39,191.38,162.94,192.79Z" style="fill:#37474f"></path><path d="M162.94,192.79a7.3,7.3,0,0,1-2.51.53c-10.4.22-24-26-29.92-42-2.08-5.6-1.93-8.48-.74-9.66Z" style="fill:#263238"></path><path d="M95.33,217.07c.14.16,61.82,1.18,62.39.55.31-.33.75-10.88-3.11-23.17-6.34-20.13-18.88-46.47-22.74-51.65-1.33-1.79-9.81-4.28-14.79-.31-10.57,8.43-16.6,34.48-18.68,43.33C94.73,201.37,94.83,216.48,95.33,217.07Z" style="fill:#37474f"></path><path d="M146.84,173.46l-45-.84c.85-3,1.84-6.09,3-9.21l38,.7C144.14,167.09,145.5,170.24,146.84,173.46Z" style="fill:#455a64"></path><path d="M149.75,180.73l-49.9-.93c.26-1,.54-2.1.84-3.23l47.77.89C148.9,178.54,149.32,179.64,149.75,180.73Z" style="fill:#455a64"></path><path d="M112.65,146.71c-14.25,17.81-24.38,42.38-24,48,.48,6.19,9.54,27.64,17.61,37.51,1,1.27,6.87.4,11.69-2.59,5.07-3.16,9.09-8.53,8-10-4.16-5.54-14.49-27.32-14.59-30.8-.09-3.22,6.36-23.32,8.61-34.86C122.17,142.88,119.27,138.42,112.65,146.71Z" style="fill:#ad6359"></path><path d="M97,231l27.48-15.28s-12.41-24.17-12.57-26.84,6-24,8.29-33.83.6-20.63-10.68-5.36S88.89,187.3,88,193.15,97,231,97,231Z" style="fill:#37474f"></path><path d="M113,181.73q.72-2.8,1.51-5.59.87-3.12,1.84-6.22c.63-2,1.35-4,2-6,0-.14.3-.06.26.08-.8,2.66-1.54,5.34-2.28,8,.6-1.23,1.2-2.46,1.85-3.67,0-.1.21,0,.16.07-.71,1.5-1.47,3-2.24,4.44-.18.65-.36,1.29-.53,1.94-1,3.59-2,7.21-2.78,10.85a12.18,12.18,0,0,0-.37,2.48,7.67,7.67,0,0,0,.56,2.79c.6,1.62,1.27,3.23,1.94,4.83,1.35,3.22,2.8,6.39,4.31,9.53,1.73,3.57,3.66,7.09,5.58,10.56,0,0-1,.34-1.06.36s-.09,0-.07-.06.65-.38.67-.38c-1.93-3-3.78-5.93-5.43-9.09s-3.13-6.32-4.49-9.58c-.7-1.67-1.38-3.36-2-5.06a9.73,9.73,0,0,1-.75-5A53.83,53.83,0,0,1,113,181.73Z" style="fill:#263238"></path><path d="M96.13,223.12a26.41,26.41,0,0,1,3-1.62c.89-.48,1.78-1,2.68-1.44l5.91-3.05c2-1,3.94-2,5.91-3s3.92-2,5.94-2.9c.08,0,.13.08.07.13-1.82,1.25-3.76,2.31-5.68,3.39s-3.81,2.09-5.74,3.08-4,2-6,2.9c-1,.45-2,.87-2.93,1.29a26.3,26.3,0,0,1-3.16,1.31C96.13,223.23,96.08,223.15,96.13,223.12Z" style="fill:#263238"></path><path d="M129.75,153.56c-2.14.12-8-4.32-10-8.71-.13-.3,2-11.75,2.18-14.06,0-.47,14.21,4.69,14.21,4.69a37.08,37.08,0,0,0-2.11,8.76,6.05,6.05,0,0,0,0,1s0,.1,0,.16C134.25,147.18,132.89,153.38,129.75,153.56Z" style="fill:#ad6359"></path><path d="M122.9,130.94c.26,3.55,1.7,13.55,9.71,14.38a9.51,9.51,0,0,0,1.49,0c0-.06,0-.12,0-.16a6.08,6.08,0,0,1,0-1,37.08,37.08,0,0,1,2.11-8.76S126.06,131.79,122.9,130.94Z" style="fill:#263238"></path><path d="M124,111.81c-2.73,4.66-3.52,19.78-.72,23.86,4.06,5.91,12.42,8.38,17.88,3.1,5.29-5.11,6-24.84,2.69-28.72C139,104.33,128,104.94,124,111.81Z" style="fill:#ad6359"></path><path d="M135.47,122.58s-.08,0-.08.09c0,1-.23,2.18-1.17,2.47,0,0,0,.06,0,0C135.36,125.1,135.61,123.55,135.47,122.58Z" style="fill:#263238"></path><path d="M134.62,121.47c-1.63-.22-2,3.06-.43,3.26S136,121.65,134.62,121.47Z" style="fill:#263238"></path><path d="M141.14,123.36s.08,0,.07.09c-.13,1-.11,2.2.78,2.62,0,0,0,.07,0,.06C140.87,125.86,140.85,124.29,141.14,123.36Z" style="fill:#263238"></path><path d="M142.15,122.38c1.65,0,1.46,3.33-.07,3.29S140.77,122.36,142.15,122.38Z" style="fill:#263238"></path><path d="M133.35,120.21c.46-.07.87-.21,1.31-.32a2.24,2.24,0,0,0,1.28-.59.71.71,0,0,0,0-.85,1.75,1.75,0,0,0-1.72-.35,2.57,2.57,0,0,0-1.56,1A.74.74,0,0,0,133.35,120.21Z" style="fill:#263238"></path><path d="M143.52,120.11a11.36,11.36,0,0,1-1.27-.47,2.13,2.13,0,0,1-1.21-.72.7.7,0,0,1,.12-.84,1.74,1.74,0,0,1,1.75-.15,2.55,2.55,0,0,1,1.45,1.11A.75.75,0,0,1,143.52,120.11Z" style="fill:#263238"></path><path d="M135.51,133.08c.22.26.43.61.79.67a2.54,2.54,0,0,0,1.12-.15s.06,0,0,.06a1.36,1.36,0,0,1-1.34.43,1.09,1.09,0,0,1-.72-1C135.39,133.05,135.47,133,135.51,133.08Z" style="fill:#263238"></path><path d="M135.1,129.88a3.52,3.52,0,0,0,2.16,1.76,4.32,4.32,0,0,0,1.24.17H139a.25.25,0,0,0,.22-.21h0a.17.17,0,0,0,0-.1h0v-.09c.1-.78.14-2,.14-2,.27.17,1.66,1,1.68.55a52.88,52.88,0,0,0-.33-10.59.1.1,0,0,0-.19,0c-.25,3.26.08,6.55-.12,9.83a6.56,6.56,0,0,0-1.59-.66c-.11,0,0,2.32-.1,2.66a.1.1,0,0,1,0,0,4.8,4.8,0,0,1-3.47-1.46C135.14,129.73,135.05,129.79,135.1,129.88Z" style="fill:#263238"></path><path d="M121.65,122.82c1-.14,3.48-3.47,4.52-4.79s1.8-8.53,1.93-10.16a10.87,10.87,0,0,0-4.3,4.21C122.61,114.21,121.86,118.43,121.65,122.82Z" style="fill:#263238;opacity:0.2"></path><path d="M140.37,114.1a5.17,5.17,0,0,1-4.8,1.49,5.24,5.24,0,0,1-3.88-3.36s-.1,0-.08,0a5.2,5.2,0,0,0,3.86,3.74,5.33,5.33,0,0,0,5-1.81A.07.07,0,0,0,140.37,114.1Z" style="fill:#263238"></path><path d="M135.72,101.08a8.15,8.15,0,0,0-7,3.38,5.81,5.81,0,0,0-.76,3.74c0,.06.11,0,.11,0a6.37,6.37,0,0,1,3.3-5.58,8.2,8.2,0,0,1,7.3-.48,5.23,5.23,0,0,1,2.66,2.38c0,.11.28.06.24-.06C140.83,102.55,138.43,101.16,135.72,101.08Z" style="fill:#263238"></path><path d="M152.74,108.49a6.67,6.67,0,0,0-2.62-3.69c-1.77-1.24-3.86-1.18-5.93-1.08-.05,0-.05.09,0,.08a9.19,9.19,0,0,1,5.12.86,6.47,6.47,0,0,1,2.82,3.32,6.32,6.32,0,0,1-3,7.7,6.39,6.39,0,0,1-5.09.24c-.06,0-.11.07,0,.1a6.47,6.47,0,0,0,8.78-7.53Z" style="fill:#263238"></path><path d="M122.65,115s-2.53-5.51,0-8.47c1.44-1.67,5.89-1.18,5.89-1.18a8.07,8.07,0,0,1,5.33-3.11c3.79-.64,8.1,1.8,8.1,1.8s3.66-1.82,6.87.28c4.48,2.91,3.49,9.93-1.31,11.93-3.37,1.4-7.64-1.76-7.64-1.76-.43,0-5,2.42-8-1.68,0,0-2.83,2.23-5.15.41A3.9,3.9,0,0,1,122.65,115Z" style="fill:#263238"></path><path d="M117.08,122.47l-.39-.5c.23-.18,2.31-1.78,3.7-1.4s8.71,4.61,9,4.79l-.31.55c-2.13-1.22-7.88-4.45-8.88-4.73S117.65,122,117.08,122.47Z" style="fill:#a6a6a6"></path><path d="M137.49,127.62l-.35-.53c.78-.52,2.53-1.14,3.54.23l-.51.38C139.27,126.47,137.56,127.58,137.49,127.62Z" style="fill:#a6a6a6"></path><path d="M133,131.93a4.65,4.65,0,0,1-1.17-.12,4.75,4.75,0,1,1,5.83-4.71,4.34,4.34,0,0,1-.21,1.49A4.75,4.75,0,0,1,133,131.93Z" style="fill:#37474f"></path><g style="opacity:0.1"><path d="M135.53,123.19l-7.32,4.07a4.82,4.82,0,0,1,.65-2.47l4.23-2.35A4.68,4.68,0,0,1,135.53,123.19Z" style="fill:#fff"></path><path d="M137.53,125.91l-8.07,4.48a4.88,4.88,0,0,1-.56-.73l8.29-4.62A4,4,0,0,1,137.53,125.91Z" style="fill:#fff"></path><path d="M137.7,127.33l-7.12,4-.17-.11,7.29-4.06A1.33,1.33,0,0,1,137.7,127.33Z" style="fill:#fff"></path></g><path d="M143,133a1.55,1.55,0,0,1-.31-.06c-1.76-.41-3-2.59-2.66-5.06a5.51,5.51,0,0,1,1.37-3.18,3.12,3.12,0,0,1,2.67-1.14,3.17,3.17,0,0,1,2.36,1.71,5.7,5.7,0,0,1,.62,3.41C146.78,131.32,145,133.26,143,133Z" style="fill:#37474f"></path><g style="opacity:0.1"><path d="M147.07,128.66,141.12,132a4.47,4.47,0,0,1-.88-1.66l6.7-3.73A5.75,5.75,0,0,1,147.07,128.66Z" style="fill:#fff"></path><path d="M145.77,124.42l-5.68,3.17a2,2,0,0,1,0-.24l5.49-3.06A.86.86,0,0,1,145.77,124.42Z" style="fill:#fff"></path></g><path d="M124.29,124.36s-2.27-5.42-4.66-4.71-1.4,8.07.91,9.55a2.6,2.6,0,0,0,3.71-.63Z" style="fill:#ad6359"></path><path d="M120,121.75s-.06,0,0,.07c1.6,1.09,2.17,2.92,2.46,4.75a1.45,1.45,0,0,0-2-.84.06.06,0,0,0,0,.11,1.61,1.61,0,0,1,1.61.92,7.81,7.81,0,0,1,.52,1.57c0,.18.35.16.33,0v0C123.39,126,122.32,122.5,120,121.75Z" style="fill:#263238"></path><path d="M171.82,158.65c.82-6.24,1.42-15.1-.25-17.45s-8.25-10.88-10.39-12.35-11.59-8.38-13.84-7.79c-1.79.47-1.08,5.06,3.41,8.39a76.42,76.42,0,0,1,6.88,6.05c1.14.91,3.09,5.92,1.74,7.54-.8,1-4.31,1.35-6-.07s-1.14-5.46-2.88-7.91-5.77-3.32-6.29-2.31.65,1.87,1.68,6.06c.66,2.7-.79,8.33,1.06,13.17a71.94,71.94,0,0,1,2,8.52Z" style="fill:#ad6359"></path><path d="M148.81,132.83a4.13,4.13,0,0,1-1.72-1.43,1.67,1.67,0,0,1-.22-.93,1.41,1.41,0,0,1,.12-.5c.06-.15.17-.37.33-.43s0-.08,0,0a1.55,1.55,0,0,1-.24.19,1.12,1.12,0,0,0-.18.2,1.5,1.5,0,0,0-.22.46,1.7,1.7,0,0,0,.12,1.11,2.78,2.78,0,0,0,2,1.43A0,0,0,1,0,148.81,132.83Z" style="fill:#263238"></path><path d="M171.57,141.2c-1.08-3.53-4.49-10.28-8.82-13.48-2.93-2.15-15.71.24-16,2.48s1.66,2.78,4.61,3.23c1.07.16,7.11-.3,7.72,1.11.89,2,1.05,8.15,1.05,8.15Z" style="fill:#ad6359"></path><path d="M147.28,129.44c2-1.93,5.43-2.31,8.74-2.45,0,0,.06.08,0,.08-.84,0-6.43,1-8.72,2.41C147.28,129.5,147.26,129.46,147.28,129.44Z" style="fill:#263238"></path><path d="M171.57,141.2c-1.08-3.53-4.49-10.28-8.82-13.48-2.93-2.15-13.78,2.42-14,4.66s2.45,3.18,5.8,3c1.08-.07,5-1.5,5.66-.09.89,2,3,7,3,7Z" style="fill:#ad6359"></path><path d="M162,139.23c-.18-.56-.24-.76-.43-1.31s-.38-1.11-.6-1.64a4.5,4.5,0,0,0-.72-1.35,2.2,2.2,0,0,0-1.28-.63,7.8,7.8,0,0,0-3.27.48,9.54,9.54,0,0,1-5.05.06,3.3,3.3,0,0,1-1.17-.69,2.1,2.1,0,0,1-.59-.81c-.36-1.36.87-2.47,2-3.17a21,21,0,0,1,7.14-2.45l1.8-.31a4.91,4.91,0,0,1,2.09,0c1.11.29,2.61,1.92,3.09,2.41,0,0,.08,0,.05-.06-.57-.61-1.87-2.45-3.69-2.86a6,6,0,0,0-2,.12c-.7.1-1.39.22-2.08.35a27.07,27.07,0,0,0-4,1.08,11.1,11.1,0,0,0-3.51,1.87,3.23,3.23,0,0,0-1.07,3.14,2.82,2.82,0,0,0,1.72,1.62,5.24,5.24,0,0,0,1.41.37,23.46,23.46,0,0,0,3.31-.05c1.08-.12,2.13-.53,3.21-.56a1.93,1.93,0,0,1,1.42.49,5.2,5.2,0,0,1,.81,1.29,15.7,15.7,0,0,1,1.22,2.63C161.92,139.49,162.09,139.46,162,139.23Z" style="fill:#263238"></path><path d="M172.27,144.21c-.31-1.62.13-7.83-.51-10s-4.11-9.79-6.61-10.18c-3.14-.5-1.47,5.86-.5,8.56s-.35,6.46-.35,6.46Z" style="fill:#ad6359"></path><path d="M163.46,128.28c.37.87.65,1.8.93,2.7a18.61,18.61,0,0,1,.75,2.62,8.27,8.27,0,0,1-.1,2.67c-.07.43-.18.86-.29,1.28s-.3.93-.41,1.39c0,.05-.09,0-.08,0a20.89,20.89,0,0,0,.36-2.62,10.76,10.76,0,0,0-.07-2.72c-.27-1.79-.92-3.5-1.21-5.29C163.33,128.23,163.43,128.22,163.46,128.28Z" style="fill:#263238"></path><path d="M164.08,139.73a9,9,0,0,1-2,4.06,15.47,15.47,0,0,1-1.52,1.71,18.28,18.28,0,0,1-1.76,1.45,17.85,17.85,0,0,0-3.19,2.94,18.51,18.51,0,0,0-2.29,3.76,12,12,0,0,1,1.73-4.17,13.77,13.77,0,0,1,3.2-3.26,21.45,21.45,0,0,0,3.25-2.91A13.12,13.12,0,0,0,164.08,139.73Z" style="fill:#263238"></path><path d="M157.15,191.78c-5.69-2.49-6.72-13.5-8.5-32.83-.31-3.39,20.53-17.74,21.83-14.33,1.63,4.28,3.14,26,2.36,31.54C171.29,187.14,163.79,194.69,157.15,191.78Z" style="fill:#ad6359"></path><path d="M149.44,169.68l24.37-13.07s.85,17.5-1.56,24-6.77,13.82-14.94,11.94C151.2,191.18,149.44,169.68,149.44,169.68Z" style="fill:#37474f"></path><path d="M151.93,184.27c-.4-1.17-.73-2.37-1-3.57s-.56-2.41-.79-3.62-.42-2.44-.54-3.68a22,22,0,0,1-.13-3.72c.2,1.23.43,2.43.66,3.64l.69,3.63c.22,1.22.45,2.43.63,3.65S151.81,183,151.93,184.27Z" style="fill:#263238"></path><path d="M152.62,174.09c1.22-.75,2.5-1.4,3.76-2.08s2.53-1.35,3.8-2c2.55-1.29,5.1-2.58,7.67-3.83l2.12-1c.76-.36,1.57-.62,2.32-1a.05.05,0,0,1,0,.1c-.61.33-1.19.74-1.8,1.09s-1.28.7-1.93,1l-3.81,2c-2.55,1.31-5.1,2.6-7.69,3.81-1.46.69-2.91,1.43-4.41,2A.07.07,0,0,1,152.62,174.09Z" style="fill:#263238"></path></g><g id="freepik--Post--inject-2"><path d="M45.57,87.41l9.88,294.52L285,374.22,275.1,79.71ZM61.49,357.83,52.72,96.33l215.84-7.24,8.77,261.5Z" style="fill:#ebebeb"></path><path d="M45.57,87.41l10,294.51-.13-.11L285,374l-.23.25L275,79.71l.14.13Zm0,0,229.52-7.84h.14v.13l10,294.52v.24H285L55.45,382.05h-.12v-.12Z" style="fill:#263238"></path><path d="M61.49,357.83,52.6,96.34v-.12h.12l215.84-7.36h.24v.24l8.67,261.5v.13h-.13Zm0,0,215.84-7.38-.13.14L268.31,89.1l.26.24L52.72,96.45l.12-.12Z" style="fill:#263238"></path><path d="M69.19,367a9.24,9.24,0,0,1-1.9,2.4A13,13,0,0,1,66,370.47h-.35a11.89,11.89,0,0,1-3.42-3.25,3.71,3.71,0,0,1-.34-3.52,1.73,1.73,0,0,1,1.52-.94,2.42,2.42,0,0,1,2.2,1.44,2.45,2.45,0,0,1,2.1-1.59,1.76,1.76,0,0,1,1.59.84A3.73,3.73,0,0,1,69.19,367Z" style="fill:#0050FF"></path><path d="M83.37,367.13a4.15,4.15,0,0,0,.12-1.11,3.92,3.92,0,1,0-3.79,4,3.89,3.89,0,0,0,1.9-.56l2.08.42.35-.39Zm-1.77,1.74-.24,0A3.29,3.29,0,1,1,82.87,366a3.5,3.5,0,0,1-.13,1v.17l.56,2Z" style="fill:#263238"></path><path d="M277.21,356.15l-5.41.18-.3.32.22,6.65.5.24,2.45-2.37,2.6,2.2.48-.27-.22-6.66Zm-.1,6.36-2.28-2h-.37l-2.13,2.14-.2-5.73,4.78-.16Z" style="fill:#263238"></path></g><g id="freepik--speech-bubbles-2--inject-2"><polygon points="422.42 223.51 422.42 190.05 313.77 190.05 313.77 206.41 295.97 223.51 422.42 223.51" style="fill:#fff"></polygon><path d="M422.42,223.51l-.16-33.46.16.16-108.65.19.35-.35,0,16.36v.16l-.11.11L296.2,223.75l-.23-.57,63.14.12Zm0,0-63.14.21-63.31.12h-.82l.59-.57,17.77-17.13-.11.27,0-16.36v-.35h.35l108.65.19h.16v.16Z" style="fill:#263238"></path><rect x="351.85" y="199.08" width="59.3" height="1.1" style="fill:#ebebeb"></rect><rect x="351.85" y="205.03" width="38.07" height="1.1" style="fill:#ebebeb"></rect><rect x="351.85" y="210.98" width="53.6" height="1.1" style="fill:#ebebeb"></rect><path d="M338.41,216a10.32,10.32,0,0,1-3.12,1.31,10.84,10.84,0,1,1,3.12-1.31Z" style="fill:#0050FF"></path><path d="M336,205.54a3.3,3.3,0,1,1-3.29-3.29A3.29,3.29,0,0,1,336,205.54Z" style="fill:#fff"></path><path d="M338.41,214.63V216a10.32,10.32,0,0,1-3.12,1.31A10.76,10.76,0,0,1,327,216v-1.36a5.7,5.7,0,0,1,11.39,0Z" style="fill:#fff"></path><polygon points="410.6 318.22 410.6 284.76 315.29 284.76 315.29 301.12 297.49 318.22 410.6 318.22" style="fill:#fff"></polygon><path d="M410.6,318.22l-.18-33.46.18.18-95.31.18.35-.36,0,16.36v.16l-.12.11-17.83,17.07-.22-.57L354,318Zm0,0-56.47.21-56.64.12h-.82l.59-.56L315,300.86l-.11.26V284.41h.36l95.31.18h.17v.17Z" style="fill:#263238"></path><path d="M339.93,310.71a10.86,10.86,0,0,1-11.39,0,10.83,10.83,0,1,1,11.39,0Z" style="fill:#c7c7c7"></path><path d="M337.53,300.26a3.3,3.3,0,1,1-3.3-3.3A3.29,3.29,0,0,1,337.53,300.26Z" style="fill:#fff"></path><path d="M339.93,309.35v1.36a10.86,10.86,0,0,1-11.39,0v-1.35a5.7,5.7,0,1,1,11.39,0Z" style="fill:#fff"></path><path d="M363.46,299.09a16,16,0,0,1-5.14,4.46,16,16,0,0,1-5.14-4.46c-1.81-2.39-1.72-6.14.87-6.95,2.86-.9,4.27,3.41,4.27,3.41s1.43-4.34,4.27-3.41C365.17,293,365.27,296.7,363.46,299.09Z" style="fill:#0050FF"></path><path d="M382.38,299.09a16,16,0,0,1-5.14,4.46,16.09,16.09,0,0,1-5.14-4.46c-1.81-2.39-1.72-6.14.87-6.95,2.86-.9,4.27,3.41,4.27,3.41s1.43-4.34,4.27-3.41C384.09,293,384.19,296.7,382.38,299.09Z" style="fill:#0050FF"></path><path d="M401.31,299.09a16.06,16.06,0,0,1-5.15,4.46,16,16,0,0,1-5.13-4.46c-1.81-2.39-1.72-6.14.86-6.95,2.87-.9,4.27,3.41,4.27,3.41s1.43-4.34,4.28-3.41C403,293,403.11,296.7,401.31,299.09Z" style="fill:#0050FF"></path><polygon points="420.32 269.58 420.32 236.12 357.18 236.12 357.18 252.48 339.38 269.58 420.32 269.58" style="fill:#fff"></polygon><path d="M420.32,269.58l-.2-33.46.2.2-63.14.16.36-.36v16.52l-.11.11-17.83,17.07-.23-.57,40.38.12Zm0,0-40.38.21-40.56.12h-.82l.59-.57,17.78-17.13-.12.27,0-16.36v-.35h.35l63.14.15h.2v.2Z" style="fill:#263238"></path><path d="M381.82,262.07a10.55,10.55,0,0,1-3.12,1.3,10.81,10.81,0,1,1,3.12-1.3Z" style="fill:#455a64"></path><path d="M379.42,251.61a3.3,3.3,0,1,1-3.29-3.29A3.29,3.29,0,0,1,379.42,251.61Z" style="fill:#fff"></path><path d="M381.82,260.71v1.36a10.55,10.55,0,0,1-3.12,1.3,10.77,10.77,0,0,1-8.27-1.31v-1.35a5.7,5.7,0,1,1,11.39,0Z" style="fill:#fff"></path><g id="freepik--xsrjP0--inject-2"><path d="M401,256.82c-.32-.2-.6-.49-1-.45-.16,0-.13-.12-.13-.2,0-1.61,0-3.22,0-4.83,0-.12,0-.22.14-.28,1.22-.62,1.75-1.85,2.5-2.89a4.81,4.81,0,0,0,.88-3.66c-.05-.36.12-.52.44-.6a.8.8,0,0,1,.92.29,6.34,6.34,0,0,1,.71,2.11,7.47,7.47,0,0,1-.22,1.81c-.05.44-.15.88-.23,1.32.1.08.23,0,.34,0h4.08c.58,0,.86.16.94.54a1.09,1.09,0,0,1-.59,1.18c-.1.05-.29,0-.3.17s.18.14.27.21c.5.33.41,1-.16,1.43-.14.1-.4.06-.41.26s.25.16.36.27a.92.92,0,0,1-.39,1.42c-.07,0-.17.05-.24.09s-.13.1,0,.19a.81.81,0,0,1,0,1.44l-.18.12a1.12,1.12,0,0,1-.71.16l-6.4,0A.76.76,0,0,1,401,256.82Z" style="fill:#0050FF;fill-rule:evenodd"></path><path d="M394.91,254c0-1,0-2,0-3.06,0-.21,0-.31.28-.31,1.24,0,2.49,0,3.74,0,.24,0,.28.08.28.29q0,3.09,0,6.18c0,.26-.07.33-.33.33-1.21,0-2.42,0-3.63,0-.3,0-.34-.1-.34-.37C394.92,256.05,394.91,255,394.91,254Z" style="fill:#0050FF;fill-rule:evenodd"></path></g></g><g id="freepik--speech-bubbles-1--inject-2"><rect x="256.44" y="142.42" width="30.12" height="22.52" style="fill:#0050FF"></rect><polygon points="265.75 164.94 277.24 164.94 271.5 171.15 265.75 164.94" style="fill:#0050FF"></polygon><path d="M277.34,155.17a18.19,18.19,0,0,1-5.84,5.08,18.28,18.28,0,0,1-5.85-5.08c-2.06-2.72-2-7,1-7.91,3.26-1,4.86,3.88,4.86,3.88s1.62-4.93,4.86-3.88C279.29,148.22,279.4,152.45,277.34,155.17Z" style="fill:#fff"></path><rect x="70.32" y="57.15" width="46.37" height="34.67" style="fill:#0050FF"></rect><polygon points="84.66 91.82 102.35 91.82 93.51 101.37 84.66 91.82" style="fill:#0050FF"></polygon><path d="M102.51,76.78a28,28,0,0,1-9,7.81,28,28,0,0,1-9-7.81C81.34,72.59,81.5,66,86,64.6c5-1.57,7.48,6,7.48,6S96,63,101,64.6C105.51,66.07,105.68,72.59,102.51,76.78Z" style="fill:#fff"></path></g></svg>
