<?xml version="1.0" encoding="utf-8"?>
<!-- Generator: Adobe Illustrator 26.0.0, SVG Export Plug-In . SVG Version: 6.00 Build 0)  -->
<svg version="1.1" id="Layer_1" xmlns="http://www.w3.org/2000/svg" xmlns:xlink="http://www.w3.org/1999/xlink" x="0px" y="0px"
	 viewBox="0 0 553.1 90.5" style="enable-background:new 0 0 553.1 90.5;" xml:space="preserve">
<style type="text/css">
	.st0{fill-rule:evenodd;clip-rule:evenodd;fill:#0050FF;}
	.st1{fill:#0C284F;}
</style>
<path class="st0" d="M56,2.2c-8.8,0-16,7.2-16,16c0,8.8,7.2,16,16,16c8.8,0,16-7.2,16-16C72,9.4,64.8,2.2,56,2.2z M24.7,33.4
	c16.7,0,30.2,13.5,30.2,30.2v24.7h-15V63.5c0-1.8-0.3-3.5-0.9-5.1l-22,22L6.4,69.9l21.2-21.2c-0.9-0.2-1.9-0.3-2.9-0.3H0v-15H24.7z
	 M87.7,33.4c-16.7,0-30.2,13.5-30.2,30.2v24.7h15V63.5c0-1.4,0.2-2.7,0.5-4l23,23L106.7,72l-23-23c1.3-0.3,2.6-0.5,4-0.5h24.7v-15
	H87.7z"/>
<path class="st1" d="M136.4,89.1V2.9h24.4L187,76.8h1.9V2.9h14v86.2h-23.9l-26.8-74h-1.8v74H136.4z"/>
<path class="st1" d="M258.8,77.8l3.5-0.4l0.3,10.2c-9.6,1.9-18,2.9-25.4,2.9c-9.3,0-16-2.6-20.1-7.7c-4-5.1-6-13.3-6-24.5
	c0-22.3,9.1-33.5,27.3-33.5c17.6,0,26.4,9.6,26.4,28.8l-0.9,9.8h-39c0.1,5.2,1.2,9,3.4,11.5c2.2,2.4,6.3,3.6,12.2,3.6
	C246.4,78.5,252.5,78.3,258.8,77.8z M251.2,52.9c0-6.2-1-10.5-3-13c-1.9-2.5-5.2-3.8-9.9-3.8s-8.1,1.3-10.3,3.9
	c-2.1,2.6-3.2,6.9-3.3,12.8H251.2z"/>
<path class="st1" d="M305.5,37.9h-17.4v27.7c0,5.1,0.4,8.5,1.1,10.2c0.8,1.7,2.7,2.5,5.8,2.5l10.3-0.4l0.6,10.9
	c-5.6,1.1-9.9,1.6-12.8,1.6c-7.1,0-12-1.6-14.7-4.9c-2.6-3.3-3.9-9.4-3.9-18.5V37.9h-8.1V26.2h8.1V7.9h13.6v18.3h17.4V37.9z"/>
<path class="st1" d="M305.5,26.2H319l9.9,51.2h2.5l12-50h14.1l12,50h2.5l9.8-51.2h13.6L382,89.1h-21.8l-9.8-43.2l-9.8,43.2h-21.8
	L305.5,26.2z"/>
<path class="st1" d="M404.1,33c4.4-5.5,11.6-8.2,21.6-8.2c10.1,0,17.2,2.7,21.5,8.2c4.4,5.5,6.5,13.6,6.5,24.5
	c0,10.9-2.1,19.1-6.3,24.7c-4.2,5.5-11.5,8.3-21.8,8.3c-10.3,0-17.6-2.8-21.8-8.3c-4.2-5.5-6.3-13.8-6.3-24.7
	C397.7,46.6,399.9,38.4,404.1,33z M414.5,73.9c1.9,3.4,5.7,5,11.3,5c5.6,0,9.4-1.7,11.3-5c1.9-3.4,2.9-8.9,2.9-16.5s-1-13-3.1-16.2
	c-2-3.2-5.7-4.8-11.1-4.8c-5.4,0-9.1,1.6-11.2,4.8c-2,3.2-3,8.6-3,16.2S412.5,70.5,414.5,73.9z"/>
<path class="st1" d="M461.2,89.1V26.2h13.6v7.6c7.1-4.6,14.3-7.6,21.4-8.9v13.7c-7.2,1.4-13.4,3.3-18.5,5.5l-2.8,1.1v43.9H461.2z"/>
<path class="st1" d="M514.1,89.1h-13.7V0h13.7v51.5l7.8-0.8l14.9-24.5h15.4L534,55.6l19.1,33.5h-15.5l-15.4-26.6l-8.2,0.9V89.1z"/>
</svg>
